<?xml version="1.0" encoding="UTF-8" standalone="no"?>
<svg
   xmlns:dc="http://purl.org/dc/elements/1.1/"
   xmlns:cc="http://creativecommons.org/ns#"
   xmlns:rdf="http://www.w3.org/1999/02/22-rdf-syntax-ns#"
   xmlns:svg="http://www.w3.org/2000/svg"
   xmlns="http://www.w3.org/2000/svg"
   xmlns:sodipodi="http://sodipodi.sourceforge.net/DTD/sodipodi-0.dtd"
   xmlns:inkscape="http://www.inkscape.org/namespaces/inkscape"
   width="6.8in"
   height="8.8in"
   viewBox="0 0 612 792"
   id="svg2"
   version="1.1"
   inkscape:version="0.48.5 r10040"
   sodipodi:docname="cloud2.svg">
  <metadata
     id="metadata9">
    <rdf:RDF>
      <cc:Work
         rdf:about="">
        <dc:format>image/svg+xml</dc:format>
        <dc:type
           rdf:resource="http://purl.org/dc/dcmitype/StillImage" />
      </cc:Work>
    </rdf:RDF>
  </metadata>
  <defs
     id="defs7" />
  <sodipodi:namedview
     pagecolor="#ffffff"
     bordercolor="#666666"
     borderopacity="1"
     objecttolerance="10"
     gridtolerance="10"
     guidetolerance="10"
     inkscape:pageopacity="0"
     inkscape:pageshadow="2"
     inkscape:window-width="1168"
     inkscape:window-height="745"
     id="namedview5"
     showgrid="false"
     inkscape:zoom="9.5353535"
     inkscape:cx="114.63267"
     inkscape:cy="675.61341"
     inkscape:window-x="0"
     inkscape:window-y="0"
     inkscape:window-maximized="0"
     inkscape:current-layer="svg2" />
  <path
     id="path17"
     fill="none"
     stroke="black"
     stroke-width="1"
     d="M 103.01,104.26            C 103.29,104.91 103.47,105.16 103.78,105.41              105.18,106.43 107.65,106.55 109.05,105.75              109.54,105.47 110.04,105.28 110.69,105.35              111.65,105.44 112.67,105.41 113.60,105.04              113.87,104.94 114.12,105.04 114.37,105.16              116.07,105.97 117.77,105.93 119.45,105.16              119.79,105.01 120.07,104.70 120.28,104.42              120.75,103.86 120.68,103.21 120.25,102.59              119.69,101.82 118.89,101.48 117.99,101.32              117.22,101.20 117.19,101.23 117.09,100.49              117.03,100.02 116.85,99.62 116.60,99.28              116.04,98.44 115.27,97.86 114.34,97.42              113.84,97.21 113.32,97.08 112.82,96.93              111.83,96.62 110.84,96.74 109.88,96.93              109.32,97.02 108.74,97.08 108.24,97.36              107.44,97.86 106.63,98.29 106.04,99.06              105.86,99.31 105.67,99.34 105.39,99.31              104.22,99.19 103.13,99.50 102.17,100.15              101.83,100.36 101.56,100.46 101.22,100.36              100.47,100.18 99.73,100.30 99.02,100.46              98.27,100.64 97.56,100.86 97.07,101.48              96.57,102.07 96.32,103.06 97.01,103.71              97.50,104.17 98.12,104.51 98.80,104.70              100.26,105.04 101.65,104.88 103.01,104.26              103.01,104.26 103.01,104.26 103.01,104.26 Z"
     style="fill:#f4f19a;fill-opacity:1;stroke:none" />
</svg>
