<?xml version="1.0" encoding="UTF-8" standalone="no"?>
<svg
   xmlns:dc="http://purl.org/dc/elements/1.1/"
   xmlns:cc="http://creativecommons.org/ns#"
   xmlns:rdf="http://www.w3.org/1999/02/22-rdf-syntax-ns#"
   xmlns:svg="http://www.w3.org/2000/svg"
   xmlns="http://www.w3.org/2000/svg"
   xmlns:sodipodi="http://sodipodi.sourceforge.net/DTD/sodipodi-0.dtd"
   xmlns:inkscape="http://www.inkscape.org/namespaces/inkscape"
   width="200"
   height="60"
   viewBox="0 0 200 60"
   id="svg2"
   version="1.1"
   inkscape:version="0.48.5 r10040"
   sodipodi:docname="gravel.svg">
  <metadata
     id="metadata9">
    <rdf:RDF>
      <cc:Work
         rdf:about="">
        <dc:format>image/svg+xml</dc:format>
        <dc:type
           rdf:resource="http://purl.org/dc/dcmitype/StillImage" />
      </cc:Work>
    </rdf:RDF>
  </metadata>
  <defs
     id="defs7" />
  <sodipodi:namedview
     pagecolor="#ffffff"
     bordercolor="#666666"
     borderopacity="1"
     objecttolerance="10"
     gridtolerance="10"
     guidetolerance="10"
     inkscape:pageopacity="0"
     inkscape:pageshadow="2"
     inkscape:window-width="1920"
     inkscape:window-height="1018"
     id="namedview5"
     showgrid="false"
     inkscape:zoom="1.1919192"
     inkscape:cx="169.27691"
     inkscape:cy="93.963106"
     inkscape:window-x="-8"
     inkscape:window-y="-8"
     inkscape:window-maximized="1"
     inkscape:current-layer="svg2" />
  <path
     id="gravel"
     d="m 133.3725,41.02031 c -2.17662,-0.071 -3.53097,0.66247 -3.89373,1.82178 -0.1693,0.52051 -0.24184,1.112 0.43532,1.112 1.13668,0.071 2.10406,0.80443 3.14401,0.59149 0.67716,-0.16561 1.13668,0.071 1.572,0.49685 0.60461,0.52052 1.20923,1.04102 1.64456,1.60885 0.89482,1.18298 2.17661,1.32494 3.53095,1.25396 0.82228,0 1.11249,-0.52051 0.96739,-1.18298 -0.29022,-1.30127 -0.21767,-2.69719 -1.57201,-3.71455 -0.67716,-0.44953 -1.28179,-1.25395 -1.49945,-2.12936 -0.21766,-0.73344 -0.67717,-0.73344 -1.35434,-0.59149 -1.11249,0.14196 -2.22498,0.59149 -2.9747,0.73345 0,0 0,0 0,0 z M 10.828917,32.88142 C 10.58707,32.38457 10.974024,31.34355 9.8373458,31.05963 8.5071906,30.77572 7.2979583,31.20159 6.790081,32.14797 c -0.7497237,1.25396 -0.7497237,2.57889 -0.2418463,3.88017 0.3869541,1.112 1.0641241,1.32493 2.1040638,0.82808 1.4994475,-0.82808 2.2491715,-2.05838 2.1766185,-3.9748 0,0 0,0 0,0 z m 71.852566,9.67676 c 0.386955,-0.37855 0.749728,-0.94638 0.217664,-1.18298 -1.112492,-0.42587 -1.93477,-1.53787 -3.216558,-1.75081 -0.580432,-0.071 -1.257601,-0.42587 -1.717107,0.37856 -0.435327,0.80442 -0.362773,1.67983 0.38695,2.34229 0.580433,0.49685 1.330157,0.56783 2.07988,0.73345 0.822279,-0.2366 1.644557,0 2.249171,-0.52051 z m -16.155337,3.00477 c 0,-1.25396 -0.459509,-1.67983 -1.741297,-1.60886 -1.644556,0.21294 -2.321725,1.30128 -1.644556,2.76817 0.24185,0.37856 0.459509,0.73345 0.604619,1.112 0.217659,0.73345 0.677168,0.59149 1.112492,0.42587 0.919019,-0.28391 1.668742,-1.53787 1.668742,-2.69718 0,0 0,0 0,0 z M 175.96165,5.43633 c 0.74972,0 1.1125,-0.44953 0.96738,-1.32494 -0.29022,-0.8754 -0.96738,-1.39591 -1.78966,-1.82178 -0.3144,-0.16562 -0.60462,-0.071 -0.74972,0.28391 -0.14511,0.52051 -0.3144,1.08834 -0.96739,1.08834 -0.53206,0 -1.06413,-0.071 -1.49945,-0.42587 -0.24185,-0.14196 -0.4595,-0.21294 -0.67717,-0.30758 -0.24184,-0.071 -0.53206,-0.071 -0.67716,0.16562 -0.14511,0.21294 -0.0726,0.42587 0,0.66247 0.1451,0.35489 0.36277,0.6388 0.74972,0.70978 1.572,0.37856 3.14401,0.66247 4.64345,0.97005 0,0 0,0 0,0 z M 148.27023,35.8152 c -0.60461,0.5915 -0.60461,1.4669 -1.20923,2.12936 -0.0726,0.071 -0.14511,0.21294 -0.14511,0.28392 -0.0726,0.66247 -0.45951,1.39591 0.21767,1.77447 0.60461,0.35489 1.28178,-0.071 1.71711,-0.59149 0.99157,-1.112 0.82227,-2.41328 -0.58044,-3.59626 0,0 0,0 0,0 z M 57.674564,53.84379 c 0,-0.59149 -0.435324,-1.04102 -1.112493,-1.112 -0.822278,0 -2.24917,0.94639 -2.466834,1.75081 -0.241846,0.59149 0,1.04102 0.604619,1.25395 0.967382,0.37856 2.902158,-0.8754 2.974708,-1.89276 0,0 0,0 0,0 z M 6.1854646,24.10372 c -1.136678,-0.44953 -2.7812336,0.80443 -2.7086793,1.9874 0,0.28392 0.1692924,0.49685 0.4595077,0.63881 1.0399398,0.59149 2.9263422,-0.80442 2.9988958,-1.75081 0,-0.42587 -0.3144003,-0.73344 -0.7497242,-0.8754 z M 121.15925,37.06916 c 0,0.42587 0,0.80443 0,1.2303 0.0726,0.80442 0.67717,0.59149 1.20923,0.59149 0.58044,-0.071 1.03994,-0.3549 0.74973,-0.87541 -0.45951,-0.73344 0,-1.32493 0,-1.9874 0,-0.42587 0.21766,-1.01736 -0.53207,-1.08834 -0.89483,-0.14196 -1.35433,0.071 -1.42689,0.8754 -0.0726,0.44954 0,0.80443 0,1.25396 0,0 0,0 0,0 z m -89.604096,4.61362 c -0.145107,0.49685 0.386955,0.73344 0.677171,0.94638 0.604616,0.28391 1.185047,0.59149 1.789664,0.73344 0.532061,0.14196 0.967385,0 1.209231,-0.52051 0.290216,-0.56783 -0.07256,-0.8754 -0.532062,-1.08833 -0.604616,-0.21294 -1.281786,-0.44954 -1.789663,-0.5915 -0.532063,0 -1.064125,-0.071 -1.354341,0.52052 z m 63.484685,-8.63575 c 0.749723,0 1.499447,-0.30757 1.499447,-0.59148 0,-0.66247 -0.67717,-0.52052 -1.064125,-0.73345 -0.290218,-0.14196 -0.435322,-0.37855 -0.749723,-0.52051 -0.652988,-0.35489 -0.967388,0.21294 -1.257602,0.59149 -0.386955,0.44953 0,0.73345 0.362769,0.94638 0.386955,0.21294 0.749724,0.37855 1.209234,0.30757 0,0 0,0 0,0 z M 48.24256,31.13061 c 0,0.071 0,0.071 0.07255,0.14196 0.3144,0.59149 0.919019,0.73344 1.499452,0.80442 0.604612,0.071 1.209226,0 1.571999,-0.49685 0.169292,-0.23659 0.169292,-0.52051 -0.14511,-0.73344 -0.677168,-0.52052 -2.176618,-0.52052 -2.8296,0 -0.09674,0.071 -0.09674,0.21293 -0.169291,0.28391 0,0 0,0 0,0 z m 92.67554,-0.35489 c 0,-0.44954 -0.21766,-0.66247 -0.60462,-0.80443 -0.21765,-0.16561 -0.58042,-0.16561 -0.65297,0.071 -0.24185,0.73345 -0.99158,0.94638 -1.35435,1.53787 -0.14511,0.28392 -0.21765,0.66247 0.0726,0.80443 0.53206,0.28391 1.03994,0 1.49944,-0.30758 0.53206,-0.28391 1.03994,-0.66246 1.03994,-1.30127 0,0 0,0 0,0 z m 52.19046,2.17668 c 0.58044,0 1.03994,0 1.11249,-0.49685 0.21766,-0.59149 -0.36277,-0.59149 -0.67717,-0.80443 -0.14511,-0.14196 -0.29021,-0.37855 -0.53206,-0.44953 -0.50787,-0.21294 -1.11249,-0.49685 -1.572,0.14196 -0.29022,0.52051 0.16929,1.25395 0.91902,1.46689 0.29021,0.14196 0.58043,0.14196 0.74972,0.14196 0,0 0,0 0,0 z M 162.41826,5.64926 c 0.0726,-0.73344 -0.31441,-0.94638 -0.74974,-1.01736 -0.60461,-0.071 -1.20922,-0.52051 -1.66873,0.071 -0.21767,0.28392 -0.29022,0.80442 0,0.94638 0.60461,0.28392 1.20923,0.66247 1.95895,0.52051 0.36277,0 0.45952,-0.37855 0.45952,-0.52051 0,0 0,0 0,0 z M 40.092332,28.93027 c 0.07256,-0.8754 -0.217659,-1.15932 -1.112492,-1.08834 -1.572002,0.071 -0.459509,1.15932 -0.919017,1.75081 1.81385,0.21294 1.958954,0.14196 2.031509,-0.66247 z M 158.06501,17.81028 c 0.21767,-0.37856 0.0726,-0.80443 0.0726,-1.18298 0,-0.49685 -0.29022,-0.8754 -0.82227,-1.01736 -0.14512,0 -0.45952,0.14196 -0.45952,0.21293 -0.14511,0.37856 -0.29021,0.87541 -0.0726,1.32494 0.24185,0.42587 0.67718,0.80443 1.28179,0.66247 0,0 0,0 0,0 z m -2.68449,16.39607 c -0.53206,0 -1.06413,0.14196 -0.99157,0.66247 0,0.59149 0.53206,0.73345 1.06412,0.73345 0.82228,0 1.64456,-0.52051 1.49945,-0.87541 -0.3144,-0.66246 -1.06412,-0.37855 -1.572,-0.52051 0,0 0,0 0,0 z M 194.97077,7.99156 c -0.38695,-0.071 -0.74972,0.071 -0.82227,0.52051 -0.0726,0.42587 0.29021,0.73344 0.74973,0.80442 0.74972,0.071 1.42689,0 1.78966,-0.80442 -0.53207,-0.37856 -1.1125,-0.52051 -1.71712,-0.52051 z m -15.93767,6.22247 c -0.45951,-0.071 -0.67718,0.071 -0.67718,0.44952 -0.0726,0.56784 0.21767,1.01737 0.82229,1.15932 0.43532,0.071 0.89484,-0.21293 0.89484,-0.66246 0,-0.66247 -0.60463,-0.80443 -1.03995,-0.94638 0,0 0,0 0,0 z M 78.715206,18.75666 c 0.677169,0.80443 1.426892,0.8754 2.249171,0.66247 0.145104,-0.071 0.435323,-0.30758 0.362768,-0.52051 -0.07256,-0.14196 -0.290214,-0.42588 -0.507877,-0.42588 -0.604614,-0.16561 -1.281784,-0.071 -2.104062,0.28392 0,0 0,0 0,0 z m -33.761759,1.39591 c -0.07255,0 -0.290214,-0.071 -0.290214,-0.071 -0.677174,0.73345 -0.532065,2.10571 0.290214,2.55524 0.3144,0.14195 0.677168,0.071 0.532059,-0.3549 -0.145105,-0.66246 -0.314401,-1.32493 -0.532059,-2.12936 z m 132.942973,5.03949 c 0.53206,-0.14196 1.20923,-0.80442 1.49944,0.30758 0,0 0,0 0,0 0.0726,0 0.21767,0 0.31441,0 0.21766,-0.80443 0,-1.4669 -0.74973,-1.67984 -0.74972,-0.23659 -0.82227,0.42588 -1.06412,0.87541 -0.0726,0.14196 0,0.35489 0,0.49685 0,0 0,0 0,0 z m 0,0 c -0.0726,0.071 -0.0726,0.16562 0,0.2366 0.3144,0.94638 0.89484,1.37225 1.8864,1.15931 0,-0.28391 0,-0.66246 0,-1.01736 -0.0726,0 -0.24185,0 -0.3144,0 0,0 -0.14511,0.071 -0.14511,0.071 0,0 0.0726,-0.071 0.0726,-0.071 -0.29021,-1.112 -0.96738,-0.52051 -1.49944,-0.37855 0,0 0,0 0,0 z M 45.026001,20.22355 c 0.145104,0.66247 0.3144,1.39592 0.459505,2.05838 1.257602,-1.04102 1.185051,-1.39591 -0.459505,-2.05838 z M 174.3171,32.9524 c 0.0726,-1.30128 0.0726,-1.30128 -1.20924,-1.30128 -0.14511,-0.071 -0.36277,-0.071 -0.53206,-0.071 0.3144,0.80443 0.99157,1.08834 1.7413,1.37226 0,0 0,0 0,0 z m 3.21655,-6.71932 c 0.0726,0.071 0.14511,0.21294 0.14511,0.28391 1.18505,0.80443 1.42689,0.80443 2.10406,0.071 -0.99156,0.14196 -1.572,-0.28391 -1.8864,-1.15931 -0.43532,0.14195 -0.50788,0.42587 -0.36277,0.80442 z m -19.32353,16.77463 c -0.0726,-0.0946 -0.21766,-0.23659 -0.36277,-0.23659 -0.1451,-0.071 -0.4595,0 -0.4595,0.071 0,0.37856 0.3144,0.2366 0.4595,0.30758 0.0726,0.071 0.21766,0 0.29022,0 0,0 0.0726,-0.071 0.0726,-0.14196 z m 19.39609,-16.49072 c 0,-0.14195 -0.0726,-0.21293 -0.14511,-0.28391 0,0.071 0,0.21294 0.14511,0.28391 z m -73.73898,18.02859 c 0.0726,0.28391 0.29022,0.42587 0.60461,0.49685 0.21767,0.071 0.50789,0 0.50789,-0.28391 0.0967,-0.44953 -0.29022,-0.52051 -0.65299,-0.59149 -0.3144,0 -0.45951,0.071 -0.45951,0.37855 z M 192.79416,20.64943 C 192.04444,19.845 191.36727,19.845 190.78684,19.845 c 0.43532,0.44953 1.03993,0.59149 2.00732,0.80443 z m -13.3983,4.85021 c 0,0 -0.1451,0.14195 -0.1451,0.14195 0,0 0.1451,-0.071 0.1451,-0.071 0,0 0,-0.071 0,-0.071 z"
     style="fill:#362b00;fill-opacity:1;stroke:none"
     inkscape:connector-curvature="0" />
</svg>
