<?xml version="1.0" encoding="UTF-8" standalone="no"?>
<svg
   xmlns:osb="http://www.openswatchbook.org/uri/2009/osb"
   xmlns:dc="http://purl.org/dc/elements/1.1/"
   xmlns:cc="http://creativecommons.org/ns#"
   xmlns:rdf="http://www.w3.org/1999/02/22-rdf-syntax-ns#"
   xmlns:svg="http://www.w3.org/2000/svg"
   xmlns="http://www.w3.org/2000/svg"
   xmlns:sodipodi="http://sodipodi.sourceforge.net/DTD/sodipodi-0.dtd"
   xmlns:inkscape="http://www.inkscape.org/namespaces/inkscape"
   width="400"
   height="100"
   viewBox="0 0 400 100"
   id="svg2"
   version="1.1"
   inkscape:version="0.48.5 r10040"
   sodipodi:docname="mountainAndPeople.svg"
   inkscape:export-filename="S:\sauverlecole - copie NJB\images\mountainAndPeople.png"
   inkscape:export-xdpi="90"
   inkscape:export-ydpi="90">
  <metadata
     id="metadata9">
    <rdf:RDF>
      <cc:Work
         rdf:about="">
        <dc:format>image/svg+xml</dc:format>
        <dc:type
           rdf:resource="http://purl.org/dc/dcmitype/StillImage" />
        <dc:title />
      </cc:Work>
    </rdf:RDF>
  </metadata>
  <defs
     id="defs7">
    <linearGradient
       id="linearGradient5192"
       osb:paint="solid">
      <stop
         style="stop-color:#362b00;stop-opacity:1;"
         offset="0"
         id="stop5194" />
    </linearGradient>
  </defs>
  <sodipodi:namedview
     pagecolor="#ffffff"
     bordercolor="#666666"
     borderopacity="1"
     objecttolerance="10"
     gridtolerance="10"
     guidetolerance="10"
     inkscape:pageopacity="0"
     inkscape:pageshadow="2"
     inkscape:window-width="1920"
     inkscape:window-height="1018"
     id="namedview5"
     showgrid="false"
     inkscape:zoom="3.3712566"
     inkscape:cx="257.65756"
     inkscape:cy="65.779206"
     inkscape:window-x="-8"
     inkscape:window-y="-8"
     inkscape:window-maximized="1"
     inkscape:current-layer="svg2"
     width="500px" />
  <g
     id="g3132"
     transform="matrix(0.14497399,0,0,0.14497399,327.36861,34.001686)">
    <g
       transform="matrix(0.92341224,0,0,0.92341224,-158.0676,-142.69564)"
       id="Calque_1">
      <g
         id="g5">
        <g
           id="g7">
          <path
             style="fill:#362c01"
             inkscape:connector-curvature="0"
             id="path11"
             d="m 434.2,224.5 c 1.4,0.8 2.7,1.7 4,2.6 1.4,0.9 2.8,1.8 4.3,2.5 2.8,1.4 5.4,3 8.3,4.3 0.5,0.2 0.7,0.5 0.9,1 0.4,0.9 0.9,1.5 2,0.7 0.4,-0.3 1,0.2 1.5,0.4 3.9,1.9 7.7,4 11.6,5.7 2.2,0.9 4.1,2.4 6.4,3 0.3,0.1 0.5,0.3 0.8,0.5 1,0.8 2,1.3 3.3,1.5 1.9,0.2 3.3,1.5 5,2.3 4.4,2.1 9,3.7 13.4,5.8 9.5,4.5 18.9,9.3 27,16.2 1.3,1.1 2.3,2.4 3.5,3.7 0,0.1 0,0.2 -0.2,0.3 -3.6,0.6 -7.2,1.2 -10.6,-0.1 -3.6,-1.4 -7,-1.6 -10.6,0 -3.2,1.4 -6.6,2.4 -9.9,3.5 -2,0.7 -2.5,2.3 -2.7,4.1 -0.4,1.2 -0.8,2.3 -1.2,3.5 -0.5,1.3 -1.4,2.4 -1.7,3.8 -1.1,1.6 -1.5,3.5 -2.2,5.3 -0.7,1.8 -2,3.6 -1.5,5.8 l 0,0 c -1.3,0.5 -0.7,1.8 -1,2.7 l 0,0 c -1.1,0.5 -0.9,1.5 -0.9,2.4 -0.4,1.2 -0.7,2.3 -1.1,3.5 -0.4,0.1 -0.8,0.1 -1,-0.3 -1.3,-0.6 -2.7,-0.9 -4.1,-1.1 -4.9,-0.7 -9.8,-1.5 -14.7,-2.2 -0.8,-0.1 -1.5,-0.1 -1.6,-1.3 0,-0.8 -0.7,-0.7 -1.1,-0.1 -0.3,0.5 -0.7,1.2 -1.2,0.7 -1.5,-1.6 -3.1,-1.2 -4.8,-0.8 -0.4,0.1 -0.9,-0.1 -1.4,-0.3 -0.4,-0.1 -0.9,-0.1 -1.1,0.2 -0.8,1.1 -2.3,1 -3.1,2.2 -0.6,0.9 -1.8,1 -2.6,1.6 -0.8,0.6 -1.4,2 -2.8,1 -0.3,-0.2 -0.4,0.2 -0.4,0.4 0,1.4 -1.3,1.8 -2.1,2.4 -3.2,2.3 -6.8,4.2 -9.9,6.7 -0.4,0.3 -0.8,0.4 -1.2,0.7 -1.2,0.8 -2.3,1.9 -3.7,2.2 -1.4,0.3 -1.7,2.3 -3.4,1.8 -0.8,2 -2.7,1.9 -4.4,2.4 -0.5,0.1 -1.3,-0.1 -1.3,0.8 0,1.8 -1.5,2.2 -2.6,2.7 -1.5,0.7 -2.6,1.8 -3.5,3.1 -0.5,0.6 -1.1,1.2 -1.6,1.8 -1.8,2 -3.7,3.8 -5.3,6 -2.6,3.7 -6.4,6.1 -9.4,9.4 -0.2,0.2 -0.5,0.4 -0.8,0.5 -1.6,0.7 -3.1,1.6 -4.9,2 -1.9,0.4 -3.2,2 -5,2.8 -1.7,0.8 -3.2,2.4 -4.4,4.1 -0.5,0.7 -1.4,1 -2.3,1.3 -1.3,0.5 -2.5,0.9 -3.6,1.8 -2.2,1.7 -4.6,3.2 -6.9,4.7 -0.8,0.5 -1.5,1.3 -2.6,0.7 -0.3,-0.1 -0.8,0.1 -0.7,0.4 0.4,1.7 -0.6,1.1 -1.4,0.9 -0.9,-0.2 -1.7,-0.2 -2.6,-0.4 -6.3,-1.6 -12.7,-2.9 -19.1,-4.2 -2.1,-0.4 -4.2,-1.2 -6.3,-1.3 -1.4,-0.1 -1.6,-2.4 -3.2,-1.4 -1.2,0.7 -2.4,0.7 -3.6,1.1 -0.1,0 -0.2,0 -0.2,0 -5.5,0.7 -11.1,1.5 -16.6,2.4 -1.5,0.3 -3,0.3 -4.5,0.1 -1.9,-0.3 -3.7,-0.8 -5.6,-1.1 -6.5,-1.1 -13.3,-1.6 -19.4,-4.6 -0.3,-0.1 -0.6,-0.2 -1,-0.4 0,-1.9 -1.3,-2.6 -2.8,-3.1 l 0,0 c -0.2,-0.5 -0.5,-0.7 -1,-0.9 -0.7,-0.5 -1.3,-1.3 -2.3,-1.6 -0.6,-1.2 -1.1,-2.6 -2.9,-2.3 -1.4,-1.2 -2.7,-2.5 -4.1,-3.7 -1.4,-1.2 -1.8,-1.1 -3.3,0 -0.6,0.5 -1.3,0.9 -1.9,1.5 -3.3,3.3 -7.1,5.6 -11.5,7 -1.6,0.5 -3.1,1.2 -4.7,1.8 -1,0.4 -4,3.1 -4.3,3.8 -0.9,2 -2.1,3.7 -4.2,4.5 -0.9,0.4 -1.7,0.8 -2.6,1.2 -3.6,1.4 -6.7,4.1 -10.8,4.7 -0.2,0 -0.5,0.2 -0.6,0.4 -0.9,1.5 -3,1.1 -4,2.5 -0.3,0.4 -0.8,-0.1 -1.2,-0.3 -1.5,-0.9 -2.6,-2.4 -4.3,-2.9 -0.2,-1.3 -1.3,-1.8 -2.3,-2.4 -2.5,-1.6 -4.6,-3.9 -7.3,-5.2 -0.4,-1.6 -1.3,-2.7 -3.1,-2.7 -2.2,-1.3 -4.4,-2.3 -7,-2.1 -1.6,0.1 -2.9,0.9 -4,1.9 -4.4,3.9 -9.6,6.6 -15,8.9 -0.2,0.1 -0.4,0.2 -0.8,-0.1 0.6,-2.5 1.7,-4.9 3.1,-7 1.6,-2.4 2.4,-5 3.6,-7.5 3,-6.2 6.1,-12.5 9.8,-18.3 2.1,-3.4 4.3,-6.7 6.7,-9.9 0.5,-0.6 0.9,-1.3 1.7,-1.6 0.6,-0.2 0.5,-1.7 1.7,-0.8 0.1,-0.1 0.1,-0.3 0.2,-0.4 2.6,-4.1 6.1,-7.5 9.7,-10.7 0.8,-0.8 0.9,-1.8 1.7,-2.5 2.3,-2.1 3.8,-4.9 5.9,-7.1 2.3,-2.5 4.1,-5.4 6.6,-7.8 1.4,-1.3 2.5,-3 3.9,-4.4 1,-1 2,-1.8 3.1,-2.6 4,-1 7.4,-3.3 11,-5.1 7.3,-3.7 14,-8.3 20.4,-13.4 5.7,-4.7 10.9,-9.9 14.5,-16.4 0.4,-0.7 0.8,-1.5 1.2,-2.2 0.1,5.6 -0.8,11 -1,16.5 -0.2,5.6 -0.2,11.1 0,17 1.2,-0.8 1.8,-1.7 2.4,-2.5 3.1,-4.2 6,-8.4 8.6,-12.9 2,-3.4 4.4,-6.7 5.7,-10.4 0.9,-2.4 1.8,-4.7 3.4,-6.7 0.5,-0.6 0.6,-1.5 0.7,-2.3 0.1,-0.6 0,-1.2 0.2,-1.6 1.1,-2.6 1.5,-5.4 2,-8.1 0.3,-0.3 0.6,-0.6 1,-0.8 0.7,2.3 1.3,4.6 2.1,6.8 2.1,6.4 5.5,12.3 8.2,18.5 2,4.5 3.7,9 3.2,14 -0.2,1.6 0,3.3 0,4.9 0.5,0 0.6,-0.3 0.8,-0.6 1.3,-2.8 2.9,-5.5 4.2,-8.3 2.5,-5.6 4.4,-11.4 5.7,-17.5 0.6,-2.8 0.9,-5.7 0.8,-8.6 -0.1,-2.8 -0.3,-5.6 -0.2,-8.3 0.2,-3.6 -0.6,-7.1 -1,-10.6 -0.4,-3.1 -0.9,-6.1 -1.2,-9.2 -0.3,-2.9 -0.1,-5.7 0.3,-8.6 0.6,-4 2,-7.6 4.8,-10.5 0.7,-0.7 1.6,-1.3 2.4,-2 0.4,-0.3 0.9,-0.4 1.3,-0.1 0.7,0.4 1.7,0.7 2.2,1.3 3,3.2 6.5,5.8 9.2,9.3 4.8,6.1 8.7,12.6 11,20 0.3,0.9 0.3,1.8 1,2.5 0.4,0 0.5,-0.3 0.6,-0.5 1,-5.1 1.6,-10.2 2.3,-15.4 0.6,-5 0.4,-10 -0.6,-15 3.5,3.5 5.7,7.8 8.2,11.9 -1.1,0.4 -1.3,1.3 -0.9,2.1 0.5,1 1.2,-0.2 1.8,-0.3 0.1,0 0.1,-0.1 0.2,-0.1 2.1,3.7 4.3,7.3 6.4,11 2.8,4.8 5.9,9.3 9.4,13.6 3.8,4.6 8.4,8.3 13.9,10.6 1.1,0.4 2.1,1 3.5,1 -0.2,-0.9 -0.5,-1.6 -1,-2.3 -4.2,-6.7 -8.7,-13.3 -12.4,-20.4 -2.1,-4 -4.1,-8.1 -5.1,-12.6 -0.4,-2 -0.9,-4 -0.4,-6.1 0.5,-1.7 0.8,-1.9 2.2,-1.1 2.6,1.4 5.1,2.9 7.7,4.4 5.7,3.4 11.5,6.6 17.8,8.7 8.4,2.3 16.3,2.8 24.4,1.7 z m -16,1 c -0.1,-0.2 -0.3,-0.3 -0.5,-0.2 -0.1,0.1 -0.3,0.2 -0.2,0.3 0,0.3 0.2,0.4 0.4,0.4 0.2,-0.1 0.3,-0.3 0.3,-0.5 z" />
          <path
             style="fill:#f4f19a"
             inkscape:connector-curvature="0"
             id="path13"
             d="m 300.8,240.4 c -0.6,2.7 -0.9,5.5 -2,8.1 -0.2,0.5 -0.2,1.1 -0.2,1.6 -0.1,0.8 -0.1,1.6 -0.7,2.3 -1.6,2 -2.5,4.3 -3.4,6.7 -1.4,3.7 -3.8,7 -5.7,10.4 -2.6,4.5 -5.5,8.7 -8.6,12.9 -0.6,0.8 -1.1,1.7 -2.4,2.5 -0.2,-5.9 -0.1,-11.4 0,-17 0.2,-5.5 1,-10.9 1,-16.5 -0.4,0.7 -0.8,1.5 -1.2,2.2 -3.6,6.6 -8.8,11.8 -14.5,16.4 -6.3,5.2 -13.1,9.7 -20.4,13.4 -3.6,1.8 -7,4.1 -11,5.1 0.9,-1.7 2.5,-2.7 3.8,-3.9 4.4,-4.2 8.8,-8.5 12.8,-13.2 2,-2.3 4.2,-4.5 6.2,-6.9 1.8,-2 2.7,-4.5 4.3,-6.6 0.9,-1.2 1.6,-2.7 2.7,-3.9 1.7,-1.7 2.4,-4 3.6,-6.1 3.6,-6 7,-12.1 10.5,-18.2 0.8,-1.3 1.1,-2.8 2.1,-4 0.4,-0.5 0.5,-1.4 1.4,-1.5 0.3,-0.1 0.6,-0.2 0.6,-0.6 0.6,-3.8 3.4,-6.6 4.7,-10.1 0.3,-0.7 1.1,-1.1 1.4,-1.9 1.8,-3.8 3.8,-7.6 5.7,-11.4 0.3,-0.6 0.6,-1.1 0.9,-1.7 0.3,-0.5 0.6,-1 1.3,-0.6 0.6,0.3 1,-0.1 1.1,-0.6 0.2,-0.7 -0.5,-0.4 -0.8,-0.5 -0.6,-0.2 -0.3,-0.6 -0.1,-1 2.8,-5.9 5.7,-11.8 8.5,-17.6 1.5,-3.2 3.4,-6.3 4.2,-9.8 0.3,-1.3 1.3,-2.3 2.3,-3 2.1,-1.5 3.2,-3.7 4.7,-5.7 1.9,-2.5 1.8,-2.4 3.5,-0.3 1.8,2.2 4.1,3.7 6.2,5.6 0.6,0.6 1.6,0.6 2.3,1.2 0.5,0.5 1.6,0.4 1.7,1.5 0,0.2 0.7,0.6 1,0.5 2.6,-0.3 4.7,1.1 7.1,1.8 1.4,0.4 2.8,1.1 4.2,1.8 0.8,0.4 2,0.3 1.9,1.7 0,0.3 0.4,0.4 0.8,0.4 2.8,-0.4 5,1.3 7.4,2.4 5.4,2.5 10.7,5.1 15.6,8.3 2.5,1.7 5,3.4 7.6,5 4.2,2.7 8.7,4.9 13.4,6.8 5.6,2.2 11.3,4.5 17.1,6 3.3,0.9 6,2.8 8.8,4.7 7.2,4.6 13.5,10.4 20.5,15.3 0.6,0.4 1.3,1 1.5,1.8 -8.1,1.1 -16,0.5 -23.8,-2.1 -6.3,-2.2 -12.1,-5.4 -17.8,-8.7 -2.5,-1.5 -5.1,-3 -7.7,-4.4 -1.5,-0.8 -1.8,-0.6 -2.2,1.1 -0.6,2.1 -0.1,4.1 0.4,6.1 1,4.5 3,8.5 5.1,12.6 3.7,7.1 8.2,13.7 12.4,20.4 0.4,0.7 0.8,1.3 1,2.3 -1.4,0 -2.5,-0.6 -3.5,-1 -5.5,-2.3 -10.2,-6 -13.9,-10.6 -3.5,-4.3 -6.6,-8.8 -9.4,-13.6 -2.1,-3.7 -4.3,-7.3 -6.4,-11 -0.3,-0.7 -0.6,-1.3 -1.1,-1.7 -2.5,-4.1 -4.7,-8.4 -8.2,-11.9 1,5 1.3,10 0.6,15 -0.6,5.1 -1.2,10.3 -2.3,15.4 0,0.2 -0.2,0.4 -0.6,0.5 -0.7,-0.7 -0.8,-1.6 -1,-2.5 -2.4,-7.4 -6.3,-13.9 -11,-20 -2.7,-3.5 -6.2,-6.1 -9.2,-9.3 -0.6,-0.6 -1.5,-0.9 -2.2,-1.3 -0.5,-0.3 -0.9,-0.2 -1.3,0.1 -0.8,0.6 -1.7,1.2 -2.4,2 -2.9,2.9 -4.3,6.4 -4.8,10.5 -0.4,2.9 -0.6,5.7 -0.3,8.6 0.3,3.1 0.8,6.1 1.2,9.2 0.4,3.5 1.2,7 1,10.6 -0.2,2.8 0.1,5.6 0.2,8.3 0.1,2.9 -0.2,5.7 -0.8,8.6 -1.2,6 -3.2,11.8 -5.7,17.5 -1.3,2.8 -2.9,5.5 -4.2,8.3 -0.1,0.3 -0.3,0.6 -0.8,0.6 0,-1.6 -0.1,-3.3 0,-4.9 0.5,-5.1 -1.2,-9.6 -3.2,-14 -2.7,-6.2 -6.1,-12 -8.2,-18.5 -0.8,-2.3 -1.4,-4.6 -2.1,-6.8 0,-0.8 0.1,-1.7 -0.7,-2.5 -0.9,1.2 -0.4,2.3 -0.5,3.3 z m -20.5,7.1 c 0,-0.3 -0.1,-0.5 -0.4,-0.5 -0.3,0.1 -0.5,0.4 -0.6,0.7 0,0.2 0.1,0.5 0.3,0.5 0.7,0.1 0.6,-0.4 0.7,-0.7 z m 37.9,25.2 c -0.1,-0.1 -0.2,-0.3 -0.3,-0.3 -0.1,0 -0.3,0.2 -0.3,0.3 0,0.1 0.2,0.2 0.3,0.3 0.1,-0.1 0.2,-0.2 0.3,-0.3 z M 308,253.5 c 0.1,-0.1 0.2,-0.3 0.1,-0.4 -0.1,-0.1 -0.3,-0.2 -0.4,-0.2 -0.2,0 -0.3,0.2 -0.1,0.4 0.1,0.1 0.3,0.1 0.4,0.2 z" />
          <g
             id="g19" />
        </g>
      </g>
      <g
         id="g85">
        <g
           id="g87">
          <path
             style="fill:#050c0c"
             inkscape:connector-curvature="0"
             id="path89"
             d="m 212.7,371.8 c 0.6,0.8 -0.2,1.4 -0.5,1.8 -2.1,2.7 -4,5.6 -5.9,8.5 -1,1.4 -2,2.7 -2.9,4.1 -0.3,0.4 -0.8,0.8 -0.5,1.5 -0.4,0.4 -0.4,0.4 0,0.7 1.2,0.7 2.2,1.6 3.1,2.5 1,0.9 2,1.9 2.9,2.9 0,0 0,0 0,0 0,0.4 0.1,0.6 0.5,0.7 0,0 0,0 0,0 0,0.2 -0.1,0.5 0.3,0.5 0.1,0 0.1,0.1 0.1,0.1 -0.2,0.5 0.3,0.8 0.5,1.1 0.5,1.7 1.1,3.5 0.5,5.3 -0.3,0.9 0,1.6 1,2 1.3,0.5 2.4,1.3 3.7,1.8 1.1,0.5 1.9,1.5 3.1,1.9 1.6,0.6 2.8,1.7 4.4,2.3 1.1,0.5 1.4,1.6 1.8,2.5 0.7,1.6 1.6,3.1 2.2,4.7 0.9,2.4 2.2,4.5 3,6.9 0.6,1.7 1.3,2.2 3.1,2 0.2,0 0.5,0 0.7,-0.1 0.5,-0.2 0.5,0.2 0.6,0.5 0.1,0.5 -0.3,0.1 -0.4,0.3 -1,0.9 -2.4,1.2 -3.7,1.4 -1,0.1 -0.2,0.5 -0.2,0.7 -0.7,0.1 -1.3,-0.1 -2,0.1 -0.3,0.1 -0.9,0.1 -0.8,-0.6 0.1,-0.6 -0.1,-1.2 -1,-1.1 -0.4,0 -0.5,-0.3 -0.6,-0.6 -1.1,-3.9 -2.8,-7.6 -3.9,-11.5 -0.3,-1.2 -1,-2 -2.4,-2.4 -2.7,-0.9 -5.3,-2 -7.9,-3.1 -1.3,-0.6 -1.5,-0.5 -1.8,0.8 -0.6,2.5 -0.9,5 -1.1,7.6 -0.1,0.7 -0.3,1.5 -0.5,2.2 -1.2,3.7 -2.5,7.3 -3.8,11 -0.6,1.7 -1.1,3.4 -2,5 -0.3,0.5 0.2,0.8 0.6,0.7 0.3,-0.1 0.6,0.1 0.9,0.1 0.4,0 0.9,0 0.9,0.5 0.1,0.7 -0.6,0.3 -0.8,0.5 -1.8,1.2 -3.2,-0.4 -4.8,-0.8 -0.3,-0.1 -0.5,-0.5 -0.9,-0.5 -0.4,-0.1 -0.6,-0.5 -0.4,-0.9 1,-2.3 1.4,-4.8 2.5,-7.2 1,-2.1 1.5,-4.6 2.4,-6.7 1.1,-2.7 1.1,-5.4 1.3,-8.1 0.2,-2.1 0.5,-4.3 -0.5,-6.3 -0.1,-0.2 -0.1,-0.6 -0.4,-0.7 -1.6,-0.5 -0.9,-1.7 -0.7,-2.7 0.6,-3.3 0.1,-6.3 -2.6,-8.6 -1.2,-1 -2.2,-2.3 -3.4,-3.3 -0.8,-0.7 -1.2,-1.4 -1,-2.6 0.2,-0.8 0.1,-1.6 0.1,-2.4 0.6,0.1 1,-0.3 1.6,-0.2 0.9,0.2 1.5,-0.2 1.7,-1 -0.8,-0.4 -1.6,-0.3 -2.4,-0.3 -0.1,-0.6 0.4,-1.2 -0.2,-1.7 0.5,-0.2 0.6,-0.7 0.8,-1.1 0.7,-2.4 1.5,-4.9 2,-7.3 0.4,-2 1,-3.9 1.5,-5.8 0.4,-1.7 0.7,-3.5 1.5,-5.2 0.2,0.3 0.6,0.4 1,0.6 0.9,0.5 1,1.2 0.8,2.1 -0.9,3.6 -1.4,7.3 -2.2,10.9 -0.2,1.1 -0.6,2.3 -0.8,3.4 -0.1,0.3 -0.2,0.7 -0.1,0.9 0.1,0.3 -0.3,0.9 0.3,1 0.5,0.1 0.9,-0.2 1.2,-0.6 1.1,-1.5 2.2,-3.1 3.5,-4.4 2,-2.1 3.4,-4.7 5.4,-6.8 0.2,-0.2 0.3,-0.5 0.4,-0.7 0.3,0.5 0.8,0.9 1.2,1.2 z m 16.1,53.8 c -0.1,0 -0.2,0.1 -0.3,0.1 0,0 0.1,0.1 0.1,0.1 0.1,0 0.2,-0.1 0.2,-0.2 0.1,0 0.1,0 0.1,-0.1 0,0.1 0,0.1 -0.1,0.1 z m 1,0.8 c 0,0 0.1,0 0.1,0.1 0,-0.1 -0.1,-0.1 -0.1,-0.1 -0.4,-0.6 -0.8,-0.2 -1.2,0 -0.2,0.1 -0.4,0.2 -0.4,0.5 0,0 0.1,0.1 0.1,0.1 0.3,-0.1 0.3,-0.3 0.3,-0.6 0.4,0 0.8,0 1.2,0 z m -15.3,-17 c -0.2,-0.7 -0.3,-1.1 -0.5,-1.3 -0.2,-0.2 0.4,-0.8 -0.4,-0.7 -0.4,0.1 -0.9,0.1 -1,0.5 -0.1,0.4 0.3,0.7 0.7,0.6 0.6,0 0.6,0.5 1.2,0.9 z" />
          <path
             style="fill:#d3ab40"
             inkscape:connector-curvature="0"
             id="path91"
             d="m 196.4,383.8 c 0.6,0.5 0.1,1.1 0.2,1.7 -0.4,0.2 -0.9,-0.1 -1.2,0.4 -1,-0.5 -2,-0.6 -3.1,-0.6 -0.1,-0.5 -0.4,-1 -0.2,-1.5 -1.3,-0.2 -0.7,-1.3 -0.9,-2 1.4,0.4 3,0.4 4.1,1.5 0.5,0.3 0.8,0.3 1.1,0.5 z" />
          <path
             style="fill:#0d1b18"
             inkscape:connector-curvature="0"
             id="path93"
             d="m 190.7,385.1 c -2.2,0.3 -2.8,-0.3 -2.2,-2.4 0.1,-0.5 -0.2,-1.2 0.5,-1.3 0.6,0 1.3,-0.5 1.9,0.1 -0.4,1.2 -0.1,2.4 -0.2,3.6 z" />
          <path
             style="fill:#c3a440"
             inkscape:connector-curvature="0"
             id="path95"
             d="m 203.1,364.9 c -0.4,-0.1 -0.7,-0.2 -1,-0.6 0.6,-1.7 -1.2,-2.2 -1.7,-3.4 -0.1,-0.2 -0.2,-0.3 -0.4,-0.4 0.5,-0.3 1,0.9 1.4,-0.1 0.3,0.1 0.7,0 0.8,0.5 0.2,0.4 0.5,0.8 0.8,1.1 0.6,0.6 0.7,1.1 0.2,1.7 -0.2,0.4 -0.1,0.8 -0.1,1.2 z" />
          <path
             style="fill:#bd633b"
             inkscape:connector-curvature="0"
             id="path97"
             d="m 208.9,393.8 c -1,-1 -1.9,-1.9 -2.9,-2.9 -1,-0.9 -2,-1.8 -3.1,-2.5 -0.4,-0.3 -0.4,-0.3 0,-0.7 1.1,0.9 2.5,1.6 3.5,2.7 0.9,1 2.1,1.8 2.5,3.4 z" />
          <path
             style="fill:#e4dbba"
             inkscape:connector-curvature="0"
             id="path99"
             d="m 195.5,385.9 c 0.3,-0.5 0.8,-0.2 1.2,-0.4 0.8,0 1.6,-0.1 2.4,0.3 -0.2,0.9 -0.8,1.2 -1.7,1 -0.6,-0.1 -1.1,0.3 -1.6,0.2 -0.1,-0.4 -0.2,-0.8 -0.3,-1.1 z" />
          <path
             style="fill:#5d4017"
             inkscape:connector-curvature="0"
             id="path101"
             d="m 190.7,385.1 c 0.1,-1.2 -0.2,-2.4 0.2,-3.6 0.1,0.1 0.3,0.2 0.4,0.3 0.2,0.7 -0.4,1.8 0.9,2 -0.3,0.5 0.1,1 0.2,1.5 -0.6,0.1 -1.2,0 -1.7,-0.2 z" />
          <path
             style="fill:#c3a440"
             inkscape:connector-curvature="0"
             id="path103"
             d="m 212.7,371.8 c -0.5,-0.4 -0.9,-0.7 -1.2,-1.2 0,-0.8 -0.8,-1.1 -0.9,-1.8 0,-0.2 0,-0.5 0,-0.7 0.4,0.4 0.8,0.8 1.3,1.1 1.2,0.6 1.2,1.5 0.8,2.6 z" />
          <path
             style="fill:#9fa151"
             inkscape:connector-curvature="0"
             id="path105"
             d="m 210.6,368.1 c 0,0.2 0,0.5 0,0.7 -0.4,-0.7 -1.2,-0.9 -1.8,-1.5 1.1,-0.5 1.2,0.5 1.8,0.8 z" />
          <path
             style="fill:#bd633b"
             inkscape:connector-curvature="0"
             id="path107"
             d="m 210.3,396.2 c -0.2,-0.3 -0.7,-0.6 -0.5,-1.1 0.4,0.3 0.6,0.6 0.5,1.1 z" />
          <path
             style="fill:#bd633b"
             inkscape:connector-curvature="0"
             id="path109"
             d="m 209.4,394.5 c -0.4,-0.1 -0.5,-0.4 -0.5,-0.7 0.4,0 0.5,0.3 0.5,0.7 z" />
          <path
             style="fill:#bd633b"
             inkscape:connector-curvature="0"
             id="path111"
             d="m 209.7,395 c -0.4,0 -0.3,-0.3 -0.3,-0.5 0.3,0.1 0.2,0.3 0.3,0.5 z" />
          <path
             style="fill:#28302f"
             inkscape:connector-curvature="0"
             id="path113"
             d="m 214.5,409.4 c -0.6,-0.4 -0.6,-0.9 -1.2,-0.9 -0.4,0 -0.7,-0.3 -0.7,-0.6 0.1,-0.4 0.6,-0.4 1,-0.5 0.7,-0.2 0.1,0.4 0.4,0.7 0.2,0.2 0.3,0.7 0.5,1.3 z" />
          <path
             style="fill:#0d1b18"
             inkscape:connector-curvature="0"
             id="path115"
             d="m 229.8,426.4 c -0.4,0 -0.8,0 -1.2,0 l 0,0 c 0.4,-0.3 0.8,-0.6 1.2,0 l 0,0 z" />
          <path
             style="fill:#0d1b18"
             inkscape:connector-curvature="0"
             id="path117"
             d="m 228.6,426.4 c 0,0.2 0,0.5 -0.3,0.6 0,0 -0.1,0 -0.1,-0.1 0,-0.3 0.2,-0.4 0.4,-0.5 0,0 0,0 0,0 z" />
          <path
             style="fill:#0d1b18"
             inkscape:connector-curvature="0"
             id="path119"
             d="m 228.9,425.7 c -0.1,0.1 -0.2,0.1 -0.3,0.2 0,0 0,-0.1 -0.1,-0.1 0.1,-0.1 0.2,-0.1 0.4,-0.1 l 0,0 z" />
          <path
             style="fill:#0d1b18"
             inkscape:connector-curvature="0"
             id="path121"
             d="m 228.8,425.6 c 0,0 0.1,-0.1 0.1,-0.1 0,0.1 0,0.1 -0.1,0.1 0.1,0.1 0,0 0,0 z" />
          <path
             style="fill:#0d1b18"
             inkscape:connector-curvature="0"
             id="path123"
             d="m 229.8,426.4 c 0,0 0.1,0 0.1,0.1 0,-0.1 -0.1,-0.1 -0.1,-0.1 0,0 0,0 0,0 z" />
        </g>
        <g
           id="g125">
          <path
             style="fill:#050c0c"
             inkscape:connector-curvature="0"
             id="path127"
             d="m 299.2,401.9 c 0.2,0 0.5,0 0.7,-0.1 0.5,-0.3 0.6,0.2 0.8,0.4 0.3,0.3 -0.1,0.5 -0.2,0.7 -0.3,0.5 -0.9,0.7 -1.4,0.9 -1.3,0.5 -2.7,0.9 -4,1.4 -0.6,0.2 -0.8,0.2 -0.8,-0.5 0,-0.6 -0.1,-1.1 -0.8,-1.3 -0.4,-0.1 -0.3,-0.4 -0.4,-0.6 -0.6,-1.9 -1,-3.8 -1.8,-5.5 -0.7,-1.6 -1.2,-3.3 -1.9,-4.9 -0.5,-1.3 -1.3,-1.2 -2.1,-0.8 -1,0.5 -2.1,0.8 -3.1,1.4 -0.5,0.3 -0.6,0.6 -0.2,1 0.5,0.5 0.9,1 1.5,1.4 1.8,1.3 3.2,3 4.4,4.8 0.4,0.5 0.3,0.9 -0.3,1.3 -2.3,1.7 -4.8,3 -7.2,4.5 -1.8,1.1 -3.6,2.5 -5.6,3.4 -0.5,0.2 -0.9,0.7 -1.3,1 -0.4,-0.2 -0.4,-0.8 -0.9,-0.9 -0.3,0.9 0,1.4 1,1.4 0,0.4 0.9,0.4 0.5,0.9 -0.3,0.4 -1.8,0.4 -2,0 -0.8,-1.3 -2,-2.4 -2.9,-3.7 -0.4,-0.6 -0.1,-0.8 0.2,-1 1,-0.6 2,-1.3 3.1,-1.7 0.6,-0.2 1,-0.6 1.5,-0.9 1.7,-1.3 3.7,-2 5.4,-3.2 1.7,-1.2 1.7,-1.5 0,-2.5 -2.6,-1.5 -5.2,-2.9 -7.9,-4.1 -0.7,-0.3 -0.8,-0.7 -0.7,-1.3 0.3,-1.9 0.3,-3.8 0.3,-5.7 0,-0.4 -0.1,-0.9 -0.3,-1.3 -1.2,-2.2 -2.4,-4.3 -3.9,-6.4 -0.9,-1.3 -1.7,-3 -1,-4.8 0.3,-0.6 0.3,-1.3 0.5,-2 0.7,0.1 1.5,-0.1 2.2,0.2 0.3,0.2 0.6,0 0.8,-0.3 0.3,-0.4 -0.2,-0.5 -0.3,-0.8 -0.3,-0.5 -0.7,-0.3 -1,-0.4 0,-0.4 -0.5,-0.9 0,-1.3 0.7,-0.5 0.5,-1.1 0.1,-1.6 -0.3,-0.4 -0.3,-0.8 -0.4,-1.3 0.7,-1.6 0.5,-3.3 0.8,-5 0.4,-2.1 0.4,-4.3 0.9,-6.5 0.2,-0.7 -0.2,-1.7 0.4,-2.4 0.3,0.1 0.5,0.4 0.8,0.4 0.9,0.3 0.8,1.1 0.7,1.7 -0.2,2.2 -0.4,4.5 -0.2,6.7 0,0.5 0,1 -0.3,1.5 -0.8,1.2 0,2.4 -0.1,3.6 0,0.9 0,1.8 0,2.7 0,0.3 -0.2,0.8 0.3,0.9 0.4,0.1 0.7,-0.1 1,-0.4 1.8,-1.8 2.6,-4 2.9,-6.5 0.2,-2.1 0.8,-4.1 1.2,-6.2 0.7,0.2 1.2,0.7 2,0.4 0.1,0.1 0.2,0.2 0.2,0.2 0,0.2 0,0.3 0,0.5 -0.5,1 -0.5,2.1 -0.6,3.2 -0.1,1.4 -0.2,2.8 -0.6,4.1 -0.1,0.2 -0.1,0.5 -0.1,0.7 0.3,1.9 -0.6,3.1 -1.9,4.3 -0.9,0.9 -1.9,1.8 -2.3,3.1 -0.4,0.3 -0.3,0.5 0,0.8 2.7,2.6 4.7,5.6 6,9.1 0,0.8 0.1,1.5 0.1,2.3 0,0.5 0.1,0.8 0.7,0.8 1.8,-0.1 3.7,-0.2 5.5,-0.5 1.2,-0.2 2.4,-0.4 3.6,-0.5 0.8,-0.1 1.2,0.3 1.5,1 1.1,2.8 2.2,5.7 3.4,8.5 0.5,1.2 1,2.6 1.4,3.9 0.3,0.9 0.7,1.6 1.8,1.6 0,0 0,0.1 0,0.1 0,0 0,0.1 -0.1,0.1 -0.1,0.1 -0.3,0.2 -0.2,0.3 0.3,0 0.5,-0.1 0.6,-0.3 z m -14.7,-5.3 c 0,-0.1 -0.1,-0.2 -0.1,-0.3 0,0 -0.1,0 -0.1,0.1 0.1,0 0.2,0.1 0.2,0.2 -0.1,0.3 -0.7,0.3 -0.2,0.8 0.4,0.5 0.8,0.8 1.5,0.5 -1.2,0.2 -0.5,-1.2 -1.3,-1.3 z m -11.4,12.1 c 0.1,0.2 -0.3,0.9 0.3,0.7 0.3,-0.1 0.3,-0.9 0.8,-1.2 -0.2,-0.2 -0.3,-0.3 -0.6,-0.3 0.2,0.6 -1.2,-0.1 -0.5,0.8 z m 4.8,-23.4 c -0.3,0.5 -0.3,0.5 0.4,1.8 0.1,-0.5 -0.1,-1.1 -0.4,-1.8 z m 18.9,17.8 c 0,0 -0.1,-0.1 -0.2,-0.1 -0.1,0.2 -0.2,0.3 -0.2,0.5 0,0.1 0.2,0.1 0.3,0.1 0.1,0 0.2,-0.1 0.1,-0.5 z m -24.6,-38 c -0.1,0 -0.1,-0.1 -0.2,-0.1 0,0.1 -0.1,0.1 -0.1,0.2 0,0 0.1,0.1 0.1,0.1 0.1,-0.1 0.2,-0.1 0.2,-0.2 z m 25.2,38 c 0,0 0,0 0,0 0,-0.1 -0.1,-0.1 -0.1,-0.1 0,0.1 0,0.1 0.1,0.1 0,0.1 0,0 0,0 z" />
          <path
             style="fill:#d3ab40"
             inkscape:connector-curvature="0"
             id="path129"
             d="m 270,367.4 c 0.1,0.4 0.1,0.9 0.4,1.3 0.4,0.5 0.6,1.1 -0.1,1.6 -0.6,0.4 0,0.9 0,1.3 -0.3,0.1 -0.5,0 -0.8,-0.1 0,-0.1 -0.1,-0.1 -0.2,-0.1 -0.2,-0.1 -0.3,-0.1 -0.5,-0.2 0,-0.9 -0.3,-1.5 -1.4,-1.2 -0.4,0.1 -0.8,-0.2 -1.2,-0.3 0.4,-0.4 0.4,-1.4 0.3,-1.4 -1.1,-0.6 -0.3,-1.6 -0.6,-2.4 1,0.5 2,1.1 3,1.6 0.3,0.2 0.7,-0.1 1.1,-0.1 z" />
          <path
             style="fill:#0d1b18"
             inkscape:connector-curvature="0"
             id="path131"
             d="m 264.9,369.3 c -0.8,0.4 -2.2,-0.4 -2.2,-1.2 0,-0.9 0.3,-1.7 0.5,-2.5 0,-0.2 0.1,-0.4 0.3,-0.3 0.6,0.3 1.3,0.2 1.9,0.1 0,0 0.1,0.3 0.2,0.4 -0.4,1.1 -0.8,2.2 -0.7,3.5 z" />
          <path
             style="fill:#bd633b"
             inkscape:connector-curvature="0"
             id="path133"
             d="m 281.1,384.5 c -1.3,-3.5 -3.3,-6.5 -6,-9.1 -0.3,-0.3 -0.4,-0.6 0,-0.8 1.6,1.6 3.2,3.2 4.3,5.2 0.9,1.3 1.6,2.9 1.7,4.7 z" />
          <path
             style="fill:#c3a440"
             inkscape:connector-curvature="0"
             id="path135"
             d="m 273,353.8 c -0.3,0 -0.6,-0.2 -0.8,-0.4 0.3,-0.9 -0.2,-1.5 -0.9,-1.9 -0.5,-0.3 -0.8,-0.7 -0.9,-1.3 0.2,0 0.3,0 0.5,0 0,0 0,0 0,0 -0.2,0.4 0.1,0.5 0.4,0.6 0.1,0 0.2,0.1 0.3,0.1 0,0 0.1,0.1 0.1,0.1 0,0 0,-0.1 0,-0.1 0,0 -0.1,0 -0.1,0 -0.1,-0.1 -0.1,-0.2 -0.2,-0.3 0,-0.2 -0.1,-0.4 -0.1,-0.6 1,0.5 1.6,1.3 2,2.3 0.3,0.6 -0.5,1 -0.3,1.5 z" />
          <path
             style="fill:#9fa151"
             inkscape:connector-curvature="0"
             id="path137"
             d="m 280.3,358.4 c -0.7,0.2 -1.3,-0.3 -2,-0.4 0.2,-1.2 -1.1,-1.4 -1.6,-2.1 -0.3,-0.5 -0.9,-0.7 -1.1,-1.5 2,1 3.7,2.1 4.7,4 z" />
          <path
             style="fill:#efce0f"
             inkscape:connector-curvature="0"
             id="path139"
             d="m 264.9,369.3 c -0.1,-1.2 0.3,-2.4 0.7,-3.5 0.1,0 0.1,0.1 0.2,0.1 0.2,0.8 -0.5,1.8 0.6,2.4 0.1,0 0.1,1 -0.3,1.4 -0.4,-0.1 -0.8,-0.3 -1.2,-0.4 z" />
          <path
             style="fill:#f6f3cf"
             inkscape:connector-curvature="0"
             id="path141"
             d="m 269.4,371.4 c 0.3,0.1 0.5,0.3 0.8,0.1 0.3,0.2 0.7,-0.1 1,0.4 0.1,0.3 0.6,0.4 0.3,0.8 -0.2,0.3 -0.5,0.4 -0.8,0.3 -0.7,-0.4 -1.5,-0.2 -2.2,-0.2 -0.2,-0.8 0.6,-0.9 0.9,-1.4 z" />
          <path
             style="fill:#28302f"
             inkscape:connector-curvature="0"
             id="path143"
             d="m 273,367.3 c 0.1,-1.2 -0.6,-2.4 0.1,-3.6 0,1.3 0.4,2.5 -0.1,3.6 z" />
          <path
             style="fill:#33a091"
             inkscape:connector-curvature="0"
             id="path145"
             d="m 275.7,410.5 c -0.9,0 -1.3,-0.4 -1,-1.4 0.5,0.1 0.5,0.7 0.9,0.9 0.1,0.2 0.1,0.4 0.1,0.5 z" />
          <path
             style="fill:#5d4017"
             inkscape:connector-curvature="0"
             id="path147"
             d="m 270.9,350.3 c -0.2,0 -0.3,0 -0.5,0 -0.3,-0.3 -0.6,-0.5 -1,-0.9 0.9,-0.2 0.9,0.7 1.5,0.9 z" />
          <path
             style="fill:#9fa151"
             inkscape:connector-curvature="0"
             id="path149"
             d="m 280.5,359.1 c 0,-0.2 0,-0.3 0,-0.5 0.2,0 0.5,0 0.5,0.2 0.1,0.2 -0.2,0.4 -0.5,0.3 z" />
          <path
             style="fill:#5d4017"
             inkscape:connector-curvature="0"
             id="path151"
             d="m 271.2,350.9 c -0.2,-0.1 -0.6,-0.2 -0.4,-0.6 0.2,-0.1 0.3,-0.1 0.5,-0.2 0,0.2 0.1,0.4 0.1,0.6 -0.1,0.1 -0.1,0.1 -0.2,0.2 z" />
          <path
             style="fill:#f6f3cf"
             inkscape:connector-curvature="0"
             id="path153"
             d="m 268.7,371.1 c 0.2,0.1 0.3,0.1 0.5,0.2 -0.2,0.1 -0.4,0.1 -0.5,-0.2 z" />
          <path
             style="fill:#28302f"
             inkscape:connector-curvature="0"
             id="path155"
             d="m 273.1,408.7 c -0.8,-0.9 0.7,-0.3 0.5,-0.8 0.3,-0.1 0.4,0.1 0.6,0.3 -0.5,0.3 -0.5,1.1 -0.8,1.2 -0.6,0.2 -0.2,-0.4 -0.3,-0.7 z" />
          <path
             style="fill:#28302f"
             inkscape:connector-curvature="0"
             id="path157"
             d="m 284.5,396.6 c 0.8,0.1 0.1,1.5 1.3,1.3 -0.7,0.3 -1,0.1 -1.5,-0.5 -0.4,-0.5 0.2,-0.5 0.2,-0.8 l 0,0 z" />
          <path
             style="fill:#28302f"
             inkscape:connector-curvature="0"
             id="path159"
             d="m 277.9,385.3 c 0.3,0.7 0.5,1.2 0.4,1.8 -0.7,-1.3 -0.7,-1.3 -0.4,-1.8 z" />
          <path
             style="fill:#0d1b18"
             inkscape:connector-curvature="0"
             id="path161"
             d="m 296.8,403.1 c 0.1,0.3 0,0.4 -0.2,0.5 -0.1,0 -0.3,0.1 -0.3,-0.1 0,-0.2 0.2,-0.3 0.2,-0.5 0.2,0.1 0.3,0.1 0.3,0.1 z" />
          <path
             style="fill:#28302f"
             inkscape:connector-curvature="0"
             id="path163"
             d="m 272.2,365.1 c 0,0 -0.1,0.1 -0.1,0.1 0,0 -0.1,0 -0.1,-0.1 0,-0.1 0,-0.1 0.1,-0.2 0,0.1 0.1,0.2 0.1,0.2 z" />
          <path
             style="fill:#28302f"
             inkscape:connector-curvature="0"
             id="path165"
             d="m 284.5,396.6 c -0.1,-0.1 -0.1,-0.2 -0.2,-0.3 0,0 0.1,0 0.1,-0.1 0.1,0.2 0.1,0.3 0.1,0.4 0,0 0,0 0,0 z" />
          <path
             style="fill:#fefefe"
             inkscape:connector-curvature="0"
             id="path167"
             d="m 299.2,401.9 c -0.1,0.2 -0.3,0.3 -0.4,0.1 -0.1,-0.1 0.1,-0.2 0.2,-0.3 0,0.1 0.1,0.2 0.2,0.2 z" />
          <path
             style="fill:#0d1b18"
             inkscape:connector-curvature="0"
             id="path169"
             d="m 297.4,403.1 c 0,0 0,0.1 0,0 -0.1,0 -0.1,0 -0.1,-0.1 0.1,0.1 0.1,0.1 0.1,0.1 0,0 0,0 0,0 z" />
          <path
             style="fill:#5d4017"
             inkscape:connector-curvature="0"
             id="path171"
             d="m 271.6,351 c 0,0 0,0 0,0 0.1,0.1 0.1,0.1 0.1,0.1 -0.1,0 -0.1,-0.1 -0.1,-0.1 0,0 0,0 0,0 z" />
          <path
             style="fill:#5d4017"
             inkscape:connector-curvature="0"
             id="path173"
             d="m 271.4,350.7 c 0.1,0.1 0.1,0.2 0.2,0.3 0,0 0,0 0,0 -0.1,0 -0.2,-0.1 -0.3,-0.1 0,-0.1 0,-0.1 0.1,-0.2 z" />
        </g>
        <g
           id="g175">
          <path
             style="fill:#040909"
             inkscape:connector-curvature="0"
             id="path177"
             d="m 489.5,314.8 c -1.2,-0.5 -2.3,-0.9 -3.7,-0.8 -0.5,0.1 -0.3,-0.5 -0.3,-0.8 0.3,-1.5 0.6,-2.9 0.6,-4.4 0.3,-0.9 0.3,-1.7 0.2,-2.7 -0.3,0.8 -0.6,1.6 -0.9,2.4 -0.5,0.8 -1,1.5 -2.1,1.4 0,-0.7 -0.7,-0.6 -1,-0.9 -0.1,-0.2 -0.2,-0.3 -0.3,-0.5 0.7,-1.8 1,-3.7 2,-5.4 0.4,-0.2 0.8,-0.4 0.9,-0.9 0.2,-1.5 0.9,-2.8 1.4,-4.2 0.9,-2.6 1.9,-5.1 2.8,-7.7 0.2,-0.2 0.4,-0.3 0.6,-0.4 0.2,0.2 0.4,0.4 0.5,0.7 0.7,1.5 1.6,2.8 2.7,4 1.2,1.3 1.7,3.2 2.8,4.7 0.7,1 0.8,2.4 1.4,3.5 0,0.1 0.1,0.2 0.1,0.3 0,0.1 0,0.1 0,0.2 0,0.1 0,0.2 -0.1,0.3 -0.2,0.1 -0.2,0.3 -0.2,0.5 0.2,1.4 -0.4,2.7 -0.4,4.1 0,0.7 0.2,0.9 0.6,1.2 1.9,1.3 4.1,1.8 6.1,2.7 1.3,0.6 2.6,1 3.9,1.6 0.9,0.4 1.4,1.1 1.8,2 1.9,3.7 3.9,7.3 5.8,10.9 0.8,1.5 0.7,1.6 2.4,1.1 0.5,-0.1 0.5,-0.1 1,0.3 -0.9,1.7 -2.8,1.5 -4.2,2.3 -0.3,0.2 -0.7,0.3 -1,0.5 -0.9,0.5 -1.6,0 -1.8,-1 -0.1,-0.7 -0.5,-1.3 -0.8,-1.9 -1.6,-3.4 -3.2,-6.8 -4.7,-10.3 -0.2,-0.4 -0.4,-0.8 -0.8,-0.9 -1.3,-0.4 -2.6,-0.8 -4,-1.2 -0.4,-0.1 -1,-0.3 -1.2,0.2 -0.1,0.3 0.2,0.7 0.5,1 0.3,0.3 0.6,0.7 0.9,1.1 1.4,1.9 1.4,1.9 0.2,3.9 m -0.4,1.2 c -0.8,1.8 -1.5,3.7 -2.5,5.5 -1,1.8 -1.8,3.5 -2.5,5.4 -0.1,0.4 -0.4,0.6 -0.2,1.1 0.3,0.5 0.7,0.3 1.1,0.3 0.3,0 0.5,0 0.8,-0.2 0.2,-0.1 0.7,-0.1 0.6,0 -0.2,0.4 0.6,0.8 0,1.2 -0.5,0.3 -0.9,0.6 -1.5,0.6 -0.6,-0.1 -1.1,0.1 -1.7,0.5 0.2,-1.5 -1.2,-1.6 -2,-1.9 -1.6,-0.8 -1.8,-1.3 -1.1,-2.9 1.1,-3 3,-5.6 4.3,-8.5 0.4,-1 0.9,-2 1.4,-3 0.5,-0.9 0.2,-1.2 -0.5,-1.8 -1.7,-1.3 3.8,1.3 4.2,2.4" />
          <path
             style="fill:#db5f31"
             inkscape:connector-curvature="0"
             id="path179"
             d="m 492.4,291 c 1.1,1.2 1.5,2.8 2.4,4.2 1.3,2.1 2.7,4.3 3.7,6.6 0.6,1.2 1.1,2.6 0.7,4.1 -0.9,-1.1 -1.6,-2.3 -1.8,-3.7 -1.3,-3.7 -3,-7.1 -5.4,-10.2 0.2,-0.3 0.1,-0.8 0.4,-1 z" />
          <path
             style="fill:#d3ab40"
             inkscape:connector-curvature="0"
             id="path181"
             d="m 494.3,283.9 c 0.5,2 0,3.8 -1.2,5.4 -0.3,0.4 -0.6,0.5 -1,0.5 -0.6,-0.2 -1.2,-0.4 -1.2,-1.2 0.5,-0.3 0.9,-0.6 0.5,-1.2 0,-1.7 0.2,-1.9 1.4,-1.9 0,0 0.1,0.1 0.1,0.1 0,0 0,-0.1 -0.1,-0.1 0,-1 0.2,-1.8 1.5,-1.6 z" />
          <path
             style="fill:#0d1b18"
             inkscape:connector-curvature="0"
             id="path183"
             d="m 494.3,283.9 c -1.3,-0.2 -1.5,0.6 -1.4,1.6 l -0.1,0 c -1.2,0 -1.3,0.2 -1.4,1.9 -0.2,-0.2 -0.4,-0.4 -0.6,-0.5 -0.1,-0.8 -0.2,-1.5 -0.3,-2.3 0.7,-1.2 0.3,-0.8 0.4,-2.3 -0.2,1.3 1.2,0 2.4,-0.1 0.2,0 0.4,0.1 0.7,0.2 0.5,0.1 1.2,0.3 1.3,0.8 0.1,0.5 -0.8,0.3 -1,0.7 z" />
          <path
             style="fill:#28302f"
             inkscape:connector-curvature="0"
             id="path185"
             d="m 492.1,292 c 2.3,3.1 4.1,6.5 5.4,10.2 -0.5,0.1 -0.2,0.5 -0.4,0.8 -0.5,-1.1 -0.6,-2.5 -1.4,-3.5 -1.1,-1.5 -1.6,-3.4 -2.8,-4.7 -1.1,-1.3 -2,-2.6 -2.7,-4 0.8,0.1 1.1,1 1.9,1.2 z" />
          <path
             style="fill:#f6f3cf"
             inkscape:connector-curvature="0"
             id="path187"
             d="m 492.1,292 c -0.8,-0.2 -1,-1.1 -1.9,-1.3 0,-0.3 -0.3,-0.5 -0.5,-0.7 0.4,-0.4 0.4,-1.2 1.2,-1.4 0,0.8 0.6,1 1.2,1.2 0.2,0.3 0.3,0.7 0.2,1.1 -0.2,0.3 -0.1,0.8 -0.2,1.1 z" />
          <path
             style="fill:#c3a440"
             inkscape:connector-curvature="0"
             id="path189"
             d="m 482.3,309 c 0.4,0.3 1,0.2 1,0.9 -2.1,0.8 -2.2,0.8 -2.7,-0.8 0.6,0.1 1.2,0.5 1.7,-0.1 z" />
          <path
             style="fill:#28302f"
             inkscape:connector-curvature="0"
             id="path191"
             d="m 491.2,315.7 c -0.6,-0.2 -1.3,-0.4 -1.7,-1" />
          <path
             style="fill:#28302f"
             inkscape:connector-curvature="0"
             id="path193"
             d="M 500.8,322.9" />
          <path
             style="fill:#28302f"
             inkscape:connector-curvature="0"
             id="path195"
             d="m 496.9,304.2 c 0,-0.2 0,-0.4 0.2,-0.5 0.1,0.2 0.1,0.4 -0.2,0.5 z" />
          <path
             style="fill:#28302f"
             inkscape:connector-curvature="0"
             id="path197"
             d="m 497.2,303.5 c 0,-0.1 0,-0.1 0,-0.2 0.1,0 0.1,0.1 0.2,0.1 -0.1,0 -0.2,0 -0.2,0.1 z" />
          <path
             style="fill:#28302f"
             inkscape:connector-curvature="0"
             id="path199"
             d="m 488.5,290.8 c -0.1,0.1 -0.2,0.2 -0.2,0.2 0.1,-0.1 0.1,-0.1 0.2,-0.2 z" />
          <path
             style="fill:#0d1b18"
             inkscape:connector-curvature="0"
             id="path201"
             d="m 488.4,306.8 c -0.1,0 -0.1,-0.1 -0.2,-0.1 0,0.1 -0.1,0.1 -0.1,0.2 0,0 0.1,0.1 0.2,0.1 0.1,-0.1 0.1,-0.2 0.1,-0.2 z" />
          <path
             style="fill:#28302f"
             inkscape:connector-curvature="0"
             id="path203"
             d="M 489.9,310.8" />
          <path
             style="fill:#0d1b18"
             inkscape:connector-curvature="0"
             id="path205"
             d="m 492.9,285.5 c 0,0 0,0.1 0.1,0.1 -0.1,0 -0.1,-0.1 -0.1,-0.1 -0.1,0 0,0 0,0 z" />
          <path
             style="fill:#040909"
             inkscape:connector-curvature="0"
             id="path207"
             d="M 500.8,321.7" />
          <path
             style="fill:#040909"
             inkscape:connector-curvature="0"
             id="path209"
             d="m 488.3,307.6 c 0,0 0,-0.1 0.1,-0.1 -0.1,0 -0.1,0 -0.1,0.1 0,0 0,0 0,0 z" />
        </g>
      </g>
    </g>
    <g
       transform="translate(0,-528)"
       id="Calque_2" />
  </g>
</svg>
