<?xml version="1.0" encoding="UTF-8" standalone="no"?>
<svg
   xmlns:osb="http://www.openswatchbook.org/uri/2009/osb"
   xmlns:dc="http://purl.org/dc/elements/1.1/"
   xmlns:cc="http://creativecommons.org/ns#"
   xmlns:rdf="http://www.w3.org/1999/02/22-rdf-syntax-ns#"
   xmlns:svg="http://www.w3.org/2000/svg"
   xmlns="http://www.w3.org/2000/svg"
   xmlns:sodipodi="http://sodipodi.sourceforge.net/DTD/sodipodi-0.dtd"
   xmlns:inkscape="http://www.inkscape.org/namespaces/inkscape"
   width="400"
   height="100"
   viewBox="0 0 400 100"
   id="svg2"
   version="1.1"
   inkscape:version="0.48.5 r10040"
   sodipodi:docname="slope.svg"
   inkscape:export-filename="S:\sauverlecole - copie NJB\images\mountainAndPeople.png"
   inkscape:export-xdpi="90"
   inkscape:export-ydpi="90">
  <metadata
     id="metadata9">
    <rdf:RDF>
      <cc:Work
         rdf:about="">
        <dc:format>image/svg+xml</dc:format>
        <dc:type
           rdf:resource="http://purl.org/dc/dcmitype/StillImage" />
        <dc:title />
      </cc:Work>
    </rdf:RDF>
  </metadata>
  <defs
     id="defs7">
    <linearGradient
       id="linearGradient5192"
       osb:paint="solid">
      <stop
         style="stop-color:#362b00;stop-opacity:1;"
         offset="0"
         id="stop5194" />
    </linearGradient>
  </defs>
  <sodipodi:namedview
     pagecolor="#ffffff"
     bordercolor="#666666"
     borderopacity="1"
     objecttolerance="10"
     gridtolerance="10"
     guidetolerance="10"
     inkscape:pageopacity="0"
     inkscape:pageshadow="2"
     inkscape:window-width="1920"
     inkscape:window-height="1018"
     id="namedview5"
     showgrid="false"
     inkscape:zoom="26.970053"
     inkscape:cx="271.99758"
     inkscape:cy="23.820802"
     inkscape:window-x="-8"
     inkscape:window-y="-8"
     inkscape:window-maximized="1"
     inkscape:current-layer="svg2"
     width="500px" />
  <path
     style="fill:#362b00;fill-opacity:1;stroke:none"
     d="m 399.84955,48.598605 c -0.1259,0.0109 -0.22853,0.08486 -0.35359,0.111658 -0.46449,0.08933 -2.04955,0.333609 -2.54382,0.351475 -0.50023,0 -0.94909,0.18684 -1.39572,0.353582 -0.49427,0.202473 -1.01162,0.355072 -1.47016,0.688556 -0.29775,0.202473 -0.67367,0.332741 -1.06075,0.279145 -0.22034,-0.04169 -0.39676,0.0558 -0.53968,0.204706 -0.0953,0.07146 -0.166,0.16302 -0.27914,0.204706 -0.40495,0.125056 -0.80394,0.222571 -1.19102,0.353582 -0.25607,0.387081 -0.69153,0.353583 -1.06075,0.50246 -0.0715,0.01787 -0.1325,-0.05806 -0.18609,-0.111658 -0.27989,0.142922 -0.54192,0.329019 -0.89327,0.186097 -0.11314,-0.04169 -0.16897,0.04097 -0.2047,0.130267 -0.0953,0.220338 -0.22555,0.261279 -0.42802,0.130267 -0.0774,-0.03573 -0.16526,-0.05062 -0.26054,-0.07444 -0.0536,-0.01787 -0.14887,0.02007 -0.14887,0.0558 0.0179,0.404946 -0.33795,0.377403 -0.55829,0.50246 -0.0953,0.279889 -0.17047,0.352094 -0.3908,0.316364 -0.13102,-0.01787 -0.22704,-0.08933 -0.31637,-0.148877 -0.0536,0.166742 -0.15036,0.218849 -0.33497,0.260534 -0.42281,0.07146 -0.82255,0.192796 -1.20963,0.353583 -0.14887,0.05955 -0.26053,0.05878 -0.40941,-0.01858 -0.42281,-0.202473 -0.57541,-0.123568 -0.68855,0.334973 -0.0179,0.07146 -0.0194,0.151855 -0.0372,0.223316 -0.0357,0.113146 -0.10943,0.128034 -0.20471,0.07444 -0.0357,-0.04169 -0.0573,-0.09305 -0.093,-0.09305 -0.18461,0.01787 -0.18609,-0.241181 -0.33497,-0.223316 -0.16674,0.03573 -0.13473,0.258302 -0.24193,0.353583 -0.16674,0.166742 -0.41164,0.259046 -0.61411,0.223316 -0.30967,-0.03573 -0.62082,0.03496 -0.93048,-0.01858 -0.35135,-0.0536 -0.65655,0.126545 -0.93049,0.334973 -0.11314,0.08933 -0.22182,0.165253 -0.33497,0.260535 -0.31562,0.256068 -0.65431,0.445886 -1.02353,0.576898 -0.22034,0.07146 -0.2248,0.358793 -0.40941,0.48385 -0.18461,0.148877 -0.32157,0.279144 -0.59551,0.279144 -0.26202,0 -0.48757,-0.01935 -0.72577,-0.03722 -0.36922,-0.04169 -0.76523,-0.113146 -1.11658,0 -0.35135,0.08933 -0.67292,0.244903 -1.04214,0.167487 -0.73843,0.262024 -1.55055,0.209172 -2.28898,0.465241 -0.11315,0.03573 -0.23895,0.01787 -0.31637,0.148877 -0.0357,0.07146 -0.12654,0.09081 -0.18609,0.03722 -0.30967,-0.35135 -0.50023,0.111657 -0.74439,0.111657 -0.17865,0.369215 -0.61933,0.451842 -0.89326,0.725776 -0.0774,0.07742 -0.14813,0.200983 -0.27914,0.260534 -0.0536,0.03573 -0.0782,0.130268 -0.16749,0.130268 -0.42877,0.01786 -0.72503,0.204705 -1.00492,0.502459 -0.0179,0.01786 -0.11315,-0.05288 -0.14888,0.01858 l 0,0.130268 c -0.0238,0.142922 -0.11091,0.25979 -0.24192,0.241925 -0.16674,-0.01787 -0.0394,-0.183863 -0.0931,-0.279145 -0.16674,0.09528 -0.33572,0.184608 -0.50246,0.148878 -0.20247,-0.03573 -0.26426,0.239691 -0.50246,0.186096 -0.20247,-0.0536 -0.44737,0.112402 -0.61412,0.279144 -0.0536,0.0536 -0.16525,0.125057 -0.26053,0 -0.0536,-0.05955 -0.17047,-0.07593 -0.24193,-0.111658 -0.22033,-0.07146 -0.30073,-0.03496 -0.37219,0.167487 -0.0357,0.107191 0.0149,0.371448 -0.0744,0.353583 -0.27989,-0.04169 -0.48831,0.242669 -0.74438,0.111657 -0.24416,-0.107191 -0.37071,-0.07072 -0.48385,0.167487 -0.0536,0.131012 -0.18684,0.20545 -0.35359,0.223315 0,0.05955 0.0134,0.113891 0.0372,0.167487 0.0357,0.113147 -0.0402,0.148133 -0.11165,0.130267 -0.0893,-0.03573 -0.16675,-0.148877 -0.29776,-0.148877 -0.34539,0.113147 -0.67218,0.221827 -1.02353,0.334974 -0.22034,0.07146 -0.43025,0.128034 -0.63272,0.223315 -0.20248,0.07146 -0.41239,0.15114 -0.63273,0.0558 -0.18461,-0.07146 -0.35135,5.96e-4 -0.44663,0.167487 -0.0893,0.148877 -0.22257,0.221082 -0.35359,0.316363 -0.0179,0.220338 -0.0796,0.428022 -0.35358,0.428022 -0.13101,0.184607 -0.26202,0.168231 -0.44663,0.03722 -0.22034,-0.166743 -0.39452,-0.08933 -0.48385,0.148877 -0.0953,0.238203 -0.096,0.24118 -0.31636,0.07444 -0.0179,0.01786 -0.0566,0 -0.0744,0 -0.0179,0.01786 -0.0186,0.05657 -0.0186,0.07444 -0.0357,0.01787 -0.0573,0.01935 -0.0931,0.03722 -0.0893,0 -0.17121,-0.01858 -0.26053,-0.01858 -0.0536,-0.03573 -0.0931,-0.07742 -0.0931,-0.148877 -0.0357,0 -0.0573,5.95e-4 -0.0931,0.01858 -0.0179,0 -0.0513,0.01935 -0.0931,0.03722 -0.2382,0.202472 -0.55829,0.264256 -0.85604,0.353583 -0.2382,0.07742 -0.44738,0.03424 -0.61412,-0.186097 -0.0536,-0.07146 -0.11463,-0.107935 -0.18609,-0.167486 -0.14888,-0.107192 -0.28362,-0.124283 -0.39081,0.01858 -0.13101,0.166742 -0.22108,0.355071 -0.31636,0.539679 0.0596,0 0.0953,0.01858 0.14888,0.01858 -0.0536,0.07742 -0.1325,0.03198 -0.1861,0.0558 -0.0536,0.07146 -0.10868,0.09379 -0.1861,0.111658 -0.0179,0.07742 -0.0215,0.149621 -0.093,0.167486 -0.11315,0.01787 -0.11315,-0.09007 -0.14888,-0.167486 -0.0536,0 -0.11389,0.01858 -0.16749,0.01858 -0.0179,0.03573 -0.07,0.03573 -0.11166,0 -0.0357,0 -0.0767,0.01858 -0.13026,0.01858 -0.0357,0.05955 -0.0767,0.06033 -0.13027,0.01858 -0.0536,0 -0.0893,-0.01858 -0.14888,-0.01858 -0.10719,0.09528 -0.24118,0.127319 -0.37219,0.0558 -0.89922,0.238203 -1.75675,0.617839 -2.53091,1.153796 -0.18461,0.125057 -0.33572,0.241925 -0.50246,0.390802 -0.26202,0.238203 -0.56126,0.348372 -0.93048,0.223316 -0.18461,-0.07742 -0.39229,-0.165968 -0.5769,0.01858 0.27394,0.148877 0.30073,0.258301 0.0744,0.353582 -0.2918,0.125057 -0.58509,0.298499 -0.93048,0.316364 -0.22629,0.09528 -0.43174,0.182374 -0.66995,0.241925 -0.0536,0 -0.10644,0.0012 -0.13026,0.03722 -0.25607,0.273934 -0.52256,0.371448 -0.85605,0.204706 -0.40494,0.256068 -0.97067,0.05955 -1.33989,0.446631 -0.0893,0.09528 -0.22331,0.18684 -0.37219,0.204706 -0.10719,0.07742 -0.24118,0.110913 -0.37219,0.09305 -0.38708,0.238203 -0.8419,0.316363 -1.24685,0.46524 -0.0953,0.01787 -0.18312,0.03871 -0.26053,0.07444 -0.23821,0.131012 -0.44961,0.107966 -0.66995,0.01858 -0.0953,-0.04169 -0.17121,-0.07518 -0.26053,-0.09305 -0.0953,-0.01786 -0.20173,-0.03347 -0.27915,0.0558 -0.0715,0.09528 0.0149,0.151855 0.0744,0.223316 0.0893,0.113146 0.0752,0.241925 -0.0558,0.241925 -0.25607,0.01786 -0.48311,0.354327 -0.76299,0.07444 -0.0179,-0.01786 -0.0558,-0.01858 -0.0558,-0.01858 -0.0715,0.351349 -0.48385,0.134733 -0.63273,0.390802 -0.0953,0.166742 -0.33721,0.202472 -0.53968,0.148877 -0.55382,-0.166743 -1.00492,-0.07072 -1.30267,0.46524 -0.0536,0.07742 -0.12804,0.112402 -0.22332,0.130267 -0.35135,0.03573 -0.63496,0.293288 -0.98631,0.334974 -0.0357,0 -0.07,0.05657 -0.11166,0.07444 -0.32753,0.238203 -0.71014,0.322319 -1.07935,0.465241 -0.11315,0.05955 -0.22183,0.01787 -0.33498,0 -0.14887,0.04168 -0.27914,0.07295 -0.42802,0.03722 -0.0953,-0.02382 -0.18833,-0.02084 -0.24192,0.07444 -0.14888,0.220338 -0.33721,0.169006 -0.53968,0.0558 -0.16674,-0.08933 -0.27989,-0.08933 -0.29776,0.148876 -0.0179,0.220338 -0.22406,0.238204 -0.3908,0.297754 -0.55382,0.184608 -1.12104,0.379637 -1.67486,0.558289 -0.20248,0.07742 -0.39304,0.164509 -0.59551,0.241925 -0.0596,0.291799 -0.20917,0.394524 -0.46524,0.334973 -0.13101,-0.03573 -0.26054,-0.147388 -0.40941,-0.111657 -0.42282,0.184607 -0.83967,0.428021 -1.3399,0.279144 -0.42281,-0.125057 -0.78532,0.01935 -1.02353,0.334973 -0.2382,0.315619 -0.55977,0.444398 -0.89326,0.539679 -0.22034,0.07146 -0.431,0.16972 -0.65134,0.223316 -0.35135,0.08933 -0.66026,0.333484 -1.02352,0.297754 -0.0774,-0.113147 -0.0372,-0.183863 -0.0372,-0.279145 0.0238,-0.131011 0.0558,-0.25979 0.0558,-0.390802 -0.0179,-0.256068 -0.28213,-0.01787 -0.35359,-0.148877 -0.18461,-0.291799 -0.56201,-0.206939 -0.80021,-0.409411 -0.0774,-0.07146 -0.20247,-0.07518 -0.29776,-0.09305 -0.0715,0 -0.15036,0.0402 -0.18609,0.111658 -0.0536,0.09528 0.0149,0.09528 0.0744,0.148877 0.30966,0.315619 0.3305,0.491294 0.0744,0.818824 -0.18461,0.244158 -0.18759,0.52628 -0.22332,0.800213 -0.0179,0.148877 0.0916,0.167487 0.20471,0.167487 0.25606,0 0.50022,-0.05878 0.74438,-0.130267 0.20247,-0.07742 0.34093,-0.03573 0.48385,0.148877 0.33349,0.464496 0.57913,1.011619 1.07936,1.321283 0.0179,0.01787 0.0551,0.07593 0.0372,0.111657 -0.0536,0.184608 0.0722,0.277656 0.16748,0.390803 0.53596,0.696744 0.99153,1.421775 1.41434,2.195935 0.14887,0.279889 0.12952,0.317108 -0.1861,0.334973 -0.36922,0.03573 -0.69079,-0.07518 -1.04214,-0.09305 -0.33348,-0.01787 -0.35135,-0.03871 -0.29775,-0.372192 0.0357,-0.178653 -0.004,-0.334974 -0.0931,-0.483851 -0.0357,-0.05359 -0.0968,-0.110913 -0.1861,-0.09305 -0.0774,0.02382 -0.0931,0.07667 -0.0931,0.130268 -0.0357,0.148877 -0.0551,0.299987 -0.18609,0.353582 -0.49427,-0.297753 -0.91485,-0.636449 -1.28407,-1.023529 -0.33348,-0.333484 -0.65952,-0.658036 -1.00492,-0.9677 -0.13101,-0.113147 -0.24415,-0.260535 -0.44663,-0.260535 l -1.73069,-0.0558 c -0.12506,0 -0.29552,-0.01935 -0.3908,0.111658 -0.22034,0.291799 -0.431,0.161561 -0.65134,0.01858 -0.18461,-0.05955 -0.35656,-0.15111 -0.42802,-0.353583 -0.11315,0 -0.24044,-0.01787 -0.35358,0 -0.33349,0.03573 -0.67442,0.09081 -0.93049,0.334973 -0.20247,0.160787 -0.20324,0.281378 -0.0186,0.48385 0.0357,0.03573 0.11541,0.07742 0.0558,0.148877 -0.10719,0.131012 -0.27914,0.133245 -0.42802,0.204706 -0.10719,0.0536 -0.23969,0.09156 -0.33497,0.204706 -0.3454,0.422811 -0.76895,0.769694 -1.06075,1.228235 -0.11315,0.148877 -0.23895,0.29701 -0.46524,0.279144 l -0.0186,0.01858 c -0.0536,0.0536 -0.16749,0.05288 -0.16749,0.130267 0,0.142922 0.20545,0.0054 0.22332,0.130268 -0.0596,0.131012 -0.18386,0.116124 -0.27914,0.223315 -0.18461,0.226293 -0.35508,0.468218 -0.53968,0.688556 -0.53001,0.7027 -1.21707,1.253544 -1.69348,2.00984 -0.14888,0.244158 -0.28287,0.24118 -0.52107,0.07444 -0.0715,-0.05955 -0.1526,-0.150366 -0.24192,-0.186096 -0.13102,-0.05955 -0.27915,-0.0536 -0.27915,0.148877 0,0.262023 -0.12654,0.449608 -0.18609,0.669946 -0.0357,0.202473 -0.22779,0.298499 -0.33498,0.167487 -0.20247,-0.220338 -0.48534,-0.392291 -0.52107,-0.725775 -0.0536,-0.458542 -0.33869,-0.762995 -0.72577,-0.911872 -0.57169,-0.202473 -1.1605,-0.374426 -1.76792,-0.279144 -0.55382,0.08933 -1.04362,0.05359 -1.52599,-0.297754 -0.25606,-0.202473 -0.39303,-0.396757 -0.44663,-0.688556 -0.0179,-0.131012 -5.9e-4,-0.265746 -0.0186,-0.390802 -0.0179,-0.262024 -0.24564,-0.386336 -0.48385,-0.279145 -0.0536,0.04169 -0.0908,0.128779 -0.18609,0.09305 -0.40495,-0.131011 -0.82255,-0.116868 -1.20963,-0.241925 -0.35135,-0.113146 -0.69674,-0.298498 -1.04214,-0.46524 -0.14887,0.607418 -0.20619,0.652081 -0.68855,0.521069 0.0536,-0.131012 0.24043,-0.189074 0.2047,-0.409411 -0.20247,-0.01787 -0.41164,-0.07515 -0.61411,0.0558 -0.0953,0.0536 -0.13399,0.01638 -0.22332,-0.03722 -0.31562,-0.184607 -0.72801,0.02007 -0.7816,0.353583 -0.0536,0.38708 -0.0648,0.410901 -0.42803,0.446631 -0.68465,-0.492521 -0.57286,-1.354374 -0.83743,-0.669946 -0.12506,0.01787 -0.24118,0.07667 -0.37219,0.130267 -0.16674,0.07742 -0.31785,0.148133 -0.50246,0.130267 -0.24416,-0.01787 -0.37145,0.05437 -0.35358,0.316364 0.0179,0.125057 -0.0975,0.182374 -0.20471,0.241925 -0.2382,0.125057 -0.44291,0.316364 -0.50246,0.614118 0.0774,0.107191 0.26128,5.95e-4 0.27915,0.167486 l -0.0558,0.0558 c -0.30967,0.256069 -0.76895,0.396757 -0.91188,0.837433 -0.0179,0.05955 -0.0759,0.03645 -0.11165,0.01858 -0.18461,-0.113146 -0.34093,-0.02084 -0.48385,0.07444 -0.20248,0.107191 -0.3186,0.05359 -0.3722,-0.148877 -0.0774,-0.220338 -0.18758,-0.446631 -0.37219,-0.595508 -0.0953,-0.07146 -0.18312,-0.08784 -0.26053,0.03722 -0.16079,0.279889 -0.31637,0.559033 -0.31637,0.874652 0,0.220338 -0.11389,0.331996 -0.31636,0.409412 -0.32753,0.107191 -0.63347,0.222571 -0.94909,0.353583 -0.32753,0.125056 -0.65506,0.273933 -0.89326,-0.148877 -0.0179,-0.01787 -0.032,-0.03722 -0.0558,-0.03722 -0.14292,-0.09528 -0.31711,-0.163765 -0.48385,-0.07444 -0.13101,0.09528 0.0536,0.247136 0,0.372192 0,0.01787 0.0372,0.05729 0.0372,0.09305 0.0715,0.273933 0.0514,0.355816 -0.20471,0.409411 -0.42281,0.107192 -0.80468,0.260535 -1.20962,0.409412 -0.18461,0.0536 -0.35135,0.131012 -0.44664,-0.148877 -0.0357,-0.107191 -0.14738,-0.130267 -0.26053,-0.130267 -0.27393,-0.02382 -0.40792,0.07667 -0.52107,0.428021 -0.12506,0.404945 -0.39527,0.539679 -0.80021,0.390802 -0.62529,-0.238203 -1.19697,-0.576154 -1.78653,-0.856043 -0.27393,-0.125056 -0.42578,-0.225548 -0.37219,-0.576898 0.0536,-0.404945 -0.061,-0.463007 -0.48385,-0.409412 -0.31562,0.03573 -0.63943,-0.03644 -0.94909,-0.01858 -0.0596,-0.148877 0,-0.259046 0,-0.372193 -0.0179,-0.202473 -0.0439,-0.409412 -0.20471,-0.558289 -0.14887,-0.125056 -0.31785,-0.128034 -0.50246,-0.07444 -0.16674,0.0536 -0.11165,0.185352 -0.11165,0.316364 0,0.327529 -0.0938,0.37517 -0.40942,0.297754 -0.0715,-0.01787 -0.20619,-0.02084 -0.24192,-0.07444 -0.14888,-0.220338 -0.37517,-0.168975 -0.59551,-0.204706 -0.51809,-0.09528 -0.55754,-0.0067 -0.68855,-0.614117 -0.0536,-0.279889 -0.22779,-0.520325 -0.33498,-0.800214 -0.0596,-0.08933 -0.11687,-0.190563 -0.24192,-0.148877 -0.11315,0.03573 -0.11166,0.128034 -0.11166,0.223315 l 0,0.539679 c -0.36922,-0.05955 -0.65357,-0.2784 -1.00492,-0.260534 -0.0953,0 -0.1124,-0.07146 -0.13027,-0.148877 -0.0179,-0.142922 0.11315,-0.05729 0.14888,-0.09305 0.0357,-0.01787 0.0931,-0.05139 0.0931,-0.09305 0.0179,-0.07146 -0.0581,-0.110914 -0.11166,-0.09305 -0.14888,0.03573 -0.14888,-0.07146 -0.14888,-0.148877 0,-0.107191 -0.0529,-0.189073 -0.13026,-0.260534 -0.22034,-0.202473 -0.43175,-0.410901 -0.66995,-0.595508 -0.22034,-0.184608 -0.50767,-0.204706 -0.7816,-0.204706 -0.18461,0 -0.31786,0.05806 -0.35359,0.260535 -0.0536,0.238203 -0.0983,0.488316 -0.0744,0.744385 0.0179,0.333484 0.0381,0.653569 0.0558,1.004919 -0.22033,-0.01787 -0.42876,-0.09156 -0.5955,-0.204706 -0.13102,-0.08933 -0.35657,-0.03799 -0.42803,-0.204706 -0.0953,-0.166742 0.10868,-0.278399 0.1861,-0.409411 0.12506,-0.220338 0.0194,-0.462263 0.0372,-0.688556 0.0179,-0.08933 -0.0811,-0.20545 -0.24193,-0.223316 -0.0953,0.148877 -0.0938,0.333485 -0.26053,0.446631 -0.14888,0.107192 -0.2784,0.227782 -0.40941,0.334973 -0.11315,0.09528 -0.20471,0.201729 -0.35358,0.130268 -0.14888,-0.0536 -0.13027,-0.203962 -0.13027,-0.334973 l 0,-1.581818 c 0,-0.38708 -0.041,-0.428766 -0.42802,-0.446631 -0.53001,-0.01787 -1.02651,0.207683 -1.5446,0.279144 -0.3454,0.03573 -0.35061,0.09305 -0.5769,-0.204706 -0.40495,-0.535957 -0.80394,-1.045861 -1.19102,-1.581818 -0.12505,-0.166742 -0.24415,-0.200984 -0.44663,-0.111657 -0.12746,0.0678 -0.24729,0.137175 -0.37219,0.204705 -0.12474,-0.02019 -0.24438,0.02317 -0.37219,0.01858 -0.47225,-0.02686 -0.93067,0.159269 -1.41433,0.0558 -0.48508,-0.12218 -0.97773,-0.05276 -1.45155,0 -0.52876,0.07561 -1.07432,0.08638 -1.60043,0.297754 -0.3382,0.12361 -0.71709,0.146537 -1.07936,0 -0.20348,-0.09424 -0.42055,-0.03501 -0.59551,0.07444 -0.10985,0.04603 -0.30769,-1.175812 -0.87253,-2.646154 -0.49739,0.726815 -0.26471,-1.200239 -0.67207,-1.167779 -0.34286,0.312809 -0.77801,0.169131 -1.1724,0.223316 -0.0737,-1.31e-4 -0.0914,-0.08381 -0.13027,-0.148877 -0.30632,0.07023 -0.32973,-0.08808 -0.63553,-0.312511 -0.0995,-0.06806 -0.49456,-1.335036 -0.55104,-1.256996 -0.14621,0.19039 -0.58302,-3.28031 -2.15859,-3.855928 -1.36048,1.963269 -0.11702,4.848857 -3.61815,5.378888 -0.26343,0.314392 -0.72821,2.285123 -1.06075,2.48385 -0.094,0.05616 -0.19339,0.160346 -0.33498,0.186096 -0.0607,0.02156 -0.0995,0.09625 -0.18609,0.07444 -0.42014,-0.08741 -0.75383,0.02156 -1.09797,0.241926 -0.0217,0.01298 -0.0968,-0.06057 -0.14888,0 -0.009,0.03466 -0.027,0.08984 -0.0372,0.130267 -0.058,0.132774 -0.17507,0.216812 -0.29775,0.167486 -0.15733,-0.05806 0.01,-0.192271 -0.0186,-0.297753 -0.18496,0.05169 -0.36811,0.112622 -0.52107,0.03722 -0.18761,-0.08411 -0.32178,0.1474 -0.53968,0.03722 -0.18324,-0.101427 -0.46752,0.0093 -0.66994,0.130267 -0.0651,0.03889 -0.18008,0.08868 -0.24193,-0.0558 -0.0374,-0.07083 -0.14414,-0.115385 -0.2047,-0.167486 -0.19621,-0.123122 -0.27206,-0.123026 -0.39081,0.0558 -0.0608,0.09522 -0.0852,0.374116 -0.16748,0.334973 -5.24922,0.08384 -2.38749,-3.729869 -7.14604,-7.218511 -0.039,0.0086 -0.0726,-0.0084 -0.11166,0 -0.0866,-0.0218 -0.1553,-0.05264 -0.24192,-0.07444 -0.0432,-0.04776 -0.0733,-0.09819 -0.0558,-0.167487 -0.0347,-0.0088 -0.0541,-0.0083 -0.0931,0 -0.0173,-0.0042 -0.0482,0.01143 -0.093,0.01858 -0.28044,0.138152 -0.60132,0.134984 -0.91187,0.148877 -1.36373,0.162251 -1.25708,-3.722233 -2.4193,-4.186097 -2.22503,-1.760209 -5.48065,-6.42881 -6.72563,-5.657151 -12.49003,9.109962 -9.99333,18.777433 -19.88284,22.160712 -0.13312,0.13842 -0.37504,0.10173 -0.55829,0 -0.49632,-0.296968 -0.95746,-0.316727 -1.37711,0.130267 -0.0709,0.06198 -0.14517,0.08039 -0.24193,0.07444 -3.85561,2.087569 -1.85372,-3.784191 -3.8708,-3.888284 -0.13987,-0.127349 -0.24085,-0.170762 -0.31636,0.0558 -0.0711,0.209303 -0.27039,0.187686 -0.44663,0.204706 -0.58214,0.04371 -1.18723,-1.9077 -1.76792,-1.869733 -0.21525,0.02561 -0.43609,0.06743 -0.65133,0.09305 -0.12903,0.268414 -0.28731,-1.674995 -0.52107,-1.795294 -0.11832,-0.06665 -0.2191,-0.202991 -0.3722,-0.204706 -0.4551,0.07574 -0.91529,-0.8304 -1.364,-1.096951 -0.37946,-0.224548 -0.75267,-0.154826 -1.06075,0.09305 -0.30808,0.247874 -0.65276,5.327935 -0.99942,5.338875 -0.23111,0.01548 -0.48041,2.0577 -0.70716,2.0558 -0.24919,1.764676 -0.27887,0.268502 -0.763,2.233154 0.013,0.02168 0.026,0.08137 0,0.111658 -0.39722,0.233475 -0.42231,0.08571 -0.72581,-0.111658 0.0635,-0.368405 0.12969,-0.760267 0.0186,-0.576898 -0.17922,0.295926 -0.31171,0.349057 -0.42802,0.316364 -0.0962,-0.06126 -0.15856,-0.09288 -0.22332,-0.130268 -0.18956,-0.179111 -0.40265,-0.420297 -0.81882,-0.130267 -1.14785,-0.453637 -0.60936,0.04395 -2.03958,-0.468544 -0.12127,-0.03055 -0.69689,-3.210603 -0.82129,-3.106859 -0.28494,0.229139 -0.43536,0.06215 -0.61412,-0.130268 -0.16447,-0.102838 -0.31513,-0.232831 -0.33497,-0.44663 -0.10972,-0.02763 -0.24711,-1.039695 -0.36119,-1.050015 -0.33212,-0.04681 -0.49484,0.744704 -0.80278,0.918924 -0.11452,0.554314 -0.51722,0.556724 -0.75283,0.856868 -0.11704,0.02579 -0.67166,2.744307 -0.949,3.014272 -0.43821,0.325636 -0.82144,0.766849 -1.21641,1.140226 -0.23413,-0.01301 -0.11001,0.246002 -0.2961,0.388667 -0.0898,0.112497 -0.19778,0.0682 -0.31636,0.148877 -0.23429,0.174347 -0.45572,0.371108 -0.68856,0.539679 -0.68559,0.551952 -1.512,0.908971 -2.15871,1.525989 -0.20401,0.2004 -0.33081,0.163991 -0.52107,-0.0558 -0.0547,-0.07521 -0.10821,-0.185459 -0.1861,-0.241925 -0.1125,-0.08975 -0.2483,-0.121901 -0.29775,0.07444 -0.064,0.254086 -0.24202,0.414998 -0.35358,0.614118 -0.0841,0.187608 -0.28164,0.246272 -0.35359,0.09305 -0.14252,-0.263119 -0.36317,-0.523928 -0.31636,-0.856043 0.06,-0.457743 -0.16347,-0.821831 -0.50246,-1.060748 -0.50491,-0.33598 -1.02535,-0.632585 -1.63765,-0.688556 -0.55886,-0.04865 -1.01379,-0.192808 -1.39572,-0.651337 -0.19886,-0.258891 -0.29844,-0.504157 -0.27914,-0.800214 0.0147,-0.131405 0.0612,-0.246564 0.0744,-0.372192 0.0467,-0.258451 -0.13363,-0.436561 -0.3908,-0.390802 -0.0622,0.02733 -0.12103,0.113801 -0.2047,0.0558 -0.36068,-0.225954 -0.77177,-0.323861 -1.11658,-0.539679 -5.21095,-3.346652 -9.95664,5.445572 -15.17758,-3.535891 0.0164,-0.284504 -0.0947,-0.577059 -0.13027,-0.874652 -0.0359,-0.101165 -0.0547,-0.214586 -0.18609,-0.204706 -0.11845,0.007 -0.14422,0.0937 -0.16749,0.186096 -0.0451,0.179016 -0.0852,0.342054 -0.13027,0.521069 -0.34349,-0.14793 -0.58541,-0.415348 -0.93048,-0.48385 -0.0924,-0.02328 -0.076,-0.106661 -0.0744,-0.186096 0.0176,-0.142958 0.12411,-0.02995 0.16749,-0.0558 0.039,-0.0086 0.10147,-0.034 0.11166,-0.07444 0.0348,-0.06493 -0.51872,-0.746221 -0.57512,-0.741987 -0.15309,-0.0018 -0.13057,-0.111027 -0.11166,-0.186096 0.0262,-0.103946 -0.51709,-0.33925 -0.0558,-0.279145 -0.16421,-0.250155 -0.31656,-0.488572 -0.50246,-0.725775 -0.98244,-0.664763 -0.72613,0.617094 -2.53275,-1.100305 0.0945,-0.375355 0.0546,-0.427807 -0.31636,-0.539679 -0.50958,-0.146781 -1.04335,-0.05443 -1.56321,-0.111658 -0.34366,-0.04972 -0.35575,0.0091 -0.50246,-0.334973 -0.26177,-0.618638 -0.31469,-1.172399 -0.55913,-1.786665 -0.0805,-0.192242 -0.2468,-3.412124 -1.16944,-4.895164 -1.3181,-1.970923 -4.30446,-10.99897 -6.76535,-12.132184 -0.98737,-0.406247 -6.72787,4.237219 -9.43428,5.247373 -1.97243,4.741425 -3.99551,8.169616 -6.95144,8.798093 -0.40495,-0.535957 -0.80394,-1.045861 -1.19102,-1.581818 -0.12506,-0.166742 -0.24416,-0.200984 -0.44663,-0.111658 -0.12746,0.0678 -0.2473,0.137175 -0.37219,0.204706 -0.12474,-0.02019 -0.24438,0.02317 -0.3722,0.01858 -0.47224,-0.02686 -0.93067,0.159269 -1.41433,0.0558 -0.48507,-0.12218 -0.97772,-0.05276 -1.45155,0 -0.52875,0.07561 -1.07432,0.08638 -1.60042,0.297754 -1.49132,-0.102772 -0.50711,1.819696 -1.9818,1.892793 -0.0737,-1.31e-4 -0.0914,-0.08381 -0.13026,-0.148877 -0.30633,0.07023 -0.62468,0.187216 -0.93048,-0.03722 -0.0995,-0.06806 -0.16685,-0.0036 -0.22332,0.07444 -0.14621,0.19039 -0.28229,0.195142 -0.44663,0.01858 -0.0663,-0.05354 -0.15534,-0.0839 -0.24193,-0.130268 -0.0476,-0.03043 -0.14015,-0.01602 -0.14887,0.01858 -0.0816,0.397043 -0.40713,0.286136 -0.65134,0.353583 -7.15877,1.990255 -3.78114,-4.796755 -9.90239,-1.600453 -0.42014,-0.08741 -0.75383,0.02156 -1.09796,0.241925 -0.0217,0.01298 -0.0968,-0.06057 -0.14888,0 -0.009,0.03466 -0.027,0.08984 -0.0372,0.130268 -0.058,0.132774 -0.17507,0.216812 -0.29775,0.167486 -0.15733,-0.05806 0.01,-0.192272 -0.0186,-0.297754 -0.18497,0.05169 -0.36811,0.112623 -0.52107,0.03722 -0.18762,-0.08411 -0.32178,0.1474 -0.53968,0.03722 -0.18325,-0.101427 -0.46753,0.0093 -0.66995,0.130267 -0.0651,0.03889 -0.18007,0.08868 -0.24192,-0.0558 -0.0374,-0.07084 -0.14414,-0.115385 -0.20471,-0.167486 -0.19621,-0.123122 -0.27205,-0.123026 -0.3908,0.0558 -0.0608,0.09522 -0.0852,0.374116 -0.16749,0.334973 -1.75104,0.200095 -5.3418,1.879671 -6.663008,-6.302469 -0.642164,-1.479344 -1.413265,-0.529588 -1.917779,-1.871557 -14.189629,-1.63873 -10.84632,-7.051997 -14.060061,-8.04947 -10.141033,8.146941 -6.463513,8.074781 -10.975813,11.378247 -0.07088,0.06198 -0.145167,0.08039 -0.241925,0.07444 -0.349438,-0.05115 -0.691247,2.138444 -1.042139,2.09305 -0.03466,-0.0088 -0.06687,0.03007 -0.111657,0.03722 -0.545038,1.006258 -2.891376,3.746682 -3.48877,4.093046 -0.05414,0.792597 -0.528423,1.665639 -0.688556,1.9442 -0.198185,0.1773 -0.370972,2.103314 -0.539679,1.9442 -0.139873,-0.12735 -0.240853,-0.170762 -0.316364,0.0558 -0.07115,0.209303 -0.27039,0.187686 -0.446631,0.204706 -0.582138,0.04371 -1.187222,0.0923 -1.767914,0.130267 -0.215252,0.02561 -0.43609,0.06743 -0.651337,0.09305 -0.129022,0.268413 -0.287302,0.325004 -0.521069,0.204706 -0.118316,-0.06665 -0.219099,-0.202991 -0.372192,-0.204706 -0.4551,0.07574 -0.928403,0.192111 -1.377112,-0.07444 -0.379458,-0.224549 -0.752669,-0.154827 -1.060749,0.09305 -0.30808,0.247874 -0.639653,0.305424 -0.98631,0.316363 -0.231117,0.01548 -0.480413,0.0577 -0.707164,0.0558 2.897001,2.45946 -3.687236,-0.911317 -0.762995,2.233155 0.01298,0.02168 0.02602,0.08137 0,0.111658 -0.09707,0.16592 0.0097,0.276417 0.07444,0.409411 -0.328554,-0.216473 -0.563327,-0.364998 -0.800214,-0.521069 0.06352,-0.368405 0.129696,-0.760267 0.01861,-0.576898 -0.179218,0.295925 -0.311706,0.349057 -0.428021,0.316363 -0.09623,-0.06126 -0.15856,-0.09288 -0.223315,-0.130267 -0.189556,-0.179111 -0.402653,-0.420298 -0.818824,-0.130267 -0.211685,-0.354232 -0.816239,-0.137712 -1.135187,-0.334974 0.11931,0.125432 0.27977,0.312118 0.148877,0.279145 l -1.656256,-2.464943 c -0.121269,-0.03055 -0.303626,-0.103743 -0.428021,0 -0.284939,0.229139 -0.435364,0.06215 -0.614118,-0.130267 -0.164467,-0.102839 -0.315131,-0.232832 -0.334973,-0.446631 -0.109716,-0.02763 -0.220892,-0.08273 -0.334973,-0.09305 -0.332115,-0.04681 -0.678361,-2.08117 -0.98631,-1.90695 -0.235613,0.106459 -0.278436,0.242413 -0.148877,0.48385 0.0259,0.04335 0.09385,0.09413 0.01861,0.148877 -0.135948,0.100861 -0.303417,0.06012 -0.46524,0.09305 -0.117035,0.02578 -0.252162,0.04383 -0.372193,0.130267 -0.43821,0.325636 -0.926318,4.557104 -1.321283,4.930481 -0.146084,0.116732 -0.305996,0.221476 -0.521069,0.148877 l -0.01861,0.01858 c -0.06507,0.03889 -0.185798,0.01798 -0.204706,0.09305 -0.0349,0.138593 0.199317,0.04187 0.186097,0.167487 -0.08975,0.112497 -0.197786,0.0682 -0.316364,0.148877 -0.234291,0.174347 -0.455724,0.371109 -0.688556,0.539679 -0.68559,0.551952 -1.512007,0.908971 -2.158716,1.525989 -0.204003,0.2004 -0.330811,0.163991 -0.52107,-0.0558 -0.05473,-0.07521 -0.108203,-0.185459 -0.186096,-0.241925 -0.112497,-0.08975 -0.248297,-0.121901 -0.297754,0.07444 -0.064,0.254086 -0.242014,0.414998 -0.353583,0.614118 -0.0841,0.187609 -0.281639,0.246272 -0.353582,0.09305 -0.142523,-0.263119 -0.363171,-0.523928 -0.316364,-0.856043 0.06003,-0.457743 -0.163467,-0.82183 -0.50246,-1.060748 -0.504913,-0.33598 -1.025351,-0.632584 -1.637647,-0.688556 C 33.300836,71.790743 32.17527,58.563804 27.785277,57.010889 24.09418,58.645894 24.291851,69.560331 18.897624,72.435385 17.19952,71.126615 16.376065,66.9884 15.547893,65.867257 c -0.479128,-0.218944 -0.542395,-0.123365 -0.521069,-0.744385 0.01638,-0.284504 -0.09469,-0.577059 -0.130268,-0.874652 -0.03591,-0.101165 -0.05467,-0.214586 -0.186096,-0.204706 -0.118446,0.007 -0.144214,0.0937 -0.167487,0.186096 -0.951128,0.691483 -1.287064,-1.089093 -1.618935,-1.581815 -0.168576,-0.232832 -0.441533,-0.3425 -0.707165,-0.409412 -0.179016,-0.04508 -0.325308,-0.0018 -0.409412,0.186097 -0.110157,0.217896 -0.202479,0.434429 -0.241925,0.688556 -0.06413,0.327749 -0.136211,0.659852 -0.204706,1.004919 -1.313739,1.75893 -0.192766,1.916925 -1.4329409,2.641498 -0.1329947,0.06475 -0.2452778,0.142892 -0.3721924,0.03722 -0.1312738,-0.08834 -0.069252,-0.226537 -0.037219,-0.353583 L 7.9092795,64.917076 C 8.003828,64.541722 7.9638876,64.489269 7.5929159,64.377397 7.0833339,64.230616 6.5495623,64.322968 6.0297077,64.265739 5.686046,64.216015 5.6739572,64.274791 5.5272479,63.930766 5.2654805,63.312129 4.9900878,62.72129 4.7456437,62.107023 4.6651073,61.914781 4.573,61.846542 4.3548417,61.883708 4.1371895,61.937482 2.7276309,61.498277 2.0239371,61.265374 l -2.05091143,0.78032 C -0.04356911,72.908496 0.40306618,160.47056 0.43819519,165.08125 137.97775,165.12706 271.5623,164.55354 400.60715,164.63196 c 0,-13.63713 -0.57163,-102.398824 -0.57163,-116.024045 -0.0461,-0.0134 -0.14372,-0.0095 -0.18588,-0.0093 z m -27.77847,8.409441 c 0.0536,0 0.093,0.03871 0.093,0.07444 0.0179,0.03573 0.0231,0.09379 -0.0186,0.111658 -0.0715,0.03573 -0.1124,-0.01489 -0.13026,-0.07444 0,-0.0536 0.0202,-0.09379 0.0558,-0.111658 z m -1.97262,1.321284 c 0.0536,0 0.0752,0.02007 0.093,0.0558 0,0.0536 -0.0387,0.05657 -0.0744,0.07444 -0.0357,0.01786 -0.0878,0.01715 -0.11166,-0.01858 -0.0179,-0.0536 0.0574,-0.07593 0.0931,-0.111658 z m -13.00813,4.466309 c 0.0179,0 0.0194,0.01858 0.0372,0.01858 0,0.01787 -0.0186,0.01935 -0.0186,0.03722 l -0.0372,0 c -0.0417,-0.03573 -0.0231,-0.0558 0.0186,-0.0558 z m -4.31743,1.563208 c 0.0596,-0.01787 0.0752,0.02007 0.0931,0.0558 -0.0179,0.01787 -0.0201,0.06923 -0.0558,0.09305 -0.0417,0.01786 -0.0744,-0.01489 -0.0744,-0.07444 0,-0.03573 0.0194,-0.07444 0.0372,-0.07444 z m -242.89493,1.451551 c 0.052,0.0131 0.0658,0.03543 0.0744,0.07444 -0.0131,0.05199 -0.054,0.04722 -0.0931,0.0558 -0.039,0.0086 -0.0973,0.003 -0.11166,-0.03722 -0.004,-0.05633 0.0869,-0.06713 0.13027,-0.09305 z m 216.28317,6.364491 c 0.14888,0.01787 0.32381,0.0024 0.50246,0.204706 -0.23821,-0.0536 -0.39527,-0.07369 -0.50246,-0.204706 z M 259.21912,72.1289 c -0.20685,0.587291 1.38291,0.825803 0.0186,0.204708 -0.078,0.01721 -0.0903,-0.04961 -0.0931,-0.111658 0.0131,-0.05199 0.0345,-0.09305 0.0744,-0.09305 z m -2.23315,2.800214 c 0.052,0.0131 0.0658,0.03543 0.0744,0.07444 -0.0131,0.05199 -0.054,0.04722 -0.093,0.0558 -0.039,0.0086 -0.0973,0.003 -0.11166,-0.03722 -0.004,-0.05634 0.0869,-0.06713 0.13027,-0.09305 z m 47.88576,3.386951 c 0.0893,0.01787 0.18535,0.03573 0.16749,0.148877 -0.0179,0.0536 -0.0767,0.0923 -0.13027,0.07444 -0.0715,0 -0.14888,-0.03496 -0.14888,-0.130267 0,-0.07146 0.0402,-0.09305 0.11166,-0.09305 z"
     id="path9"
     inkscape:connector-curvature="0"
     sodipodi:nodetypes="ccccccccccccccccccccccccccccccccccscccccccscccccccccscccccccccccccccccccccccccccccccccccccccccccccccccccccccccccccscccccccccccccccccccsccccccccccccsccccccccccccccccccccccccccccssccccccsccccccccccccccccccccccccccccccccsccccccccccccccccccccsccccccsccccccsccscccccccccccssccccccccccccccccccccccccccccccscccccccccccccccccccccccccscccccccccccccccccccccccccccccccccccccccccccccccccccccccccccccccccccccccccccccccccscccccccccccccccccccccsccccccccccccccccccccccccccccccccccccccccccccccccccccccccccccccccsccccccccccscccsccccccccccsccccccccccsccccscccccsc" />
</svg>
