<?xml version="1.0" encoding="UTF-8" standalone="no"?>
<svg
   xmlns:osb="http://www.openswatchbook.org/uri/2009/osb"
   xmlns:dc="http://purl.org/dc/elements/1.1/"
   xmlns:cc="http://creativecommons.org/ns#"
   xmlns:rdf="http://www.w3.org/1999/02/22-rdf-syntax-ns#"
   xmlns:svg="http://www.w3.org/2000/svg"
   xmlns="http://www.w3.org/2000/svg"
   xmlns:sodipodi="http://sodipodi.sourceforge.net/DTD/sodipodi-0.dtd"
   xmlns:inkscape="http://www.inkscape.org/namespaces/inkscape"
   width="400"
   height="100"
   viewBox="0 0 400 100"
   id="svg2"
   version="1.1"
   inkscape:version="0.48.5 r10040"
   sodipodi:docname="slope2.svg">
  <metadata
     id="metadata9">
    <rdf:RDF>
      <cc:Work
         rdf:about="">
        <dc:format>image/svg+xml</dc:format>
        <dc:type
           rdf:resource="http://purl.org/dc/dcmitype/StillImage" />
        <dc:title />
      </cc:Work>
    </rdf:RDF>
  </metadata>
  <defs
     id="defs7">
    <linearGradient
       id="linearGradient5192"
       osb:paint="solid">
      <stop
         style="stop-color:#362b00;stop-opacity:1;"
         offset="0"
         id="stop5194" />
    </linearGradient>
  </defs>
  <sodipodi:namedview
     pagecolor="#ffffff"
     bordercolor="#666666"
     borderopacity="1"
     objecttolerance="10"
     gridtolerance="10"
     guidetolerance="10"
     inkscape:pageopacity="0"
     inkscape:pageshadow="2"
     inkscape:window-width="1920"
     inkscape:window-height="1018"
     id="namedview5"
     showgrid="false"
     inkscape:zoom="3.3712566"
     inkscape:cx="179.44844"
     inkscape:cy="26.886586"
     inkscape:window-x="-8"
     inkscape:window-y="-8"
     inkscape:window-maximized="1"
     inkscape:current-layer="svg2"
     width="500px" />
  <path
     style="fill:#f4f19a;fill-opacity:1;stroke:none"
     d="m 23.570406,72.31938 c -4.879674,0.76763 -4.308149,3.10246 -6.099136,2.73929 -7.4953414,-4.53451 -5.718784,-4.34887 -6.56543,-3.53193 0.07478,1.09743 -2.9271045,0.84668 -5.1477593,0.71415 -2.1260469,-0.37011 0.9271287,-0.48114 -2.8694135,-1.33008 -0.8418452,-0.30333 -0.4563764,-0.87188 -2.97859706,0.0522 -0.05134806,2.26071 0.0029281,48.53021 0.06309872,49.66298 115.83867114,0.35006 270.02824114,3.6542 400.93402114,2.2555 -0.002,-8.52249 -0.0127,-60.10634 -0.002,-63.4796 -1.09703,0.65922 -3.99794,1.37097 -5.96254,3.12962 -1.78598,-0.20443 -3.48569,-1.07892 -4.79019,-0.42196 -1.15871,-1.68325 -4.92567,2.98804 -4.04741,3.24232 -2.83083,1.50947 -4.1093,5.69708 -6.95712,1.96996 -1.8824,-1.8908 -3.28096,-0.71097 -5.43314,-0.66388 -1.5037,1.265 -1.02729,-2.13434 -6.07504,-1.38767 -2.88903,-0.2266 -4.75068,5.41642 -7.33016,5.33558 -1.56628,-1.06368 -2.91985,-3.1697 -6.09907,-2.35462 -0.80088,-0.86579 -2.38217,0.63095 -3.76757,-0.37301 -2.21237,-0.0367 -13.95845,9.8776 -15.86546,9.5374 -7.75943,2.556486 -6.70528,-3.937324 -12.24215,4.398301 -2.91361,4.386377 -8.9733,-0.04727 -8.91611,2.218949 -0.21628,-0.27813 -2.28107,0.25643 -2.61122,1.2589 -1.87109,0.6062 -2.58528,3.68469 -5.55824,2.56444 -10.25869,-13.812453 -2.77123,-3.30929 -15.61184,-9.70859 -0.66949,-0.75306 -5.15911,0.82893 -4.70025,0.68774 0.95715,-1.81066 -3.30701,-1.84018 -6.43487,-1.88836 -2.8268,-0.52845 -3.9009,-0.46534 -6.78925,-0.69939 -0.25298,-1.88569 -2.98505,-2.64826 -5.33436,-2.36628 -0.70928,-0.68282 -2.3701,0.6717 -3.67431,-0.29141 -2.20883,-0.0375 -3.57916,-0.20871 -5.48357,-0.54786 -4.54955,-1.80413 -5.58259,1.82536 -8.30025,1.08406 -1.2254,0.31763 -3.75689,-4.38285 -5.93127,-4.38467 -4.63234,-1.79815 -6.47725,2.07501 -7.64724,1.65523 0.25536,0.94103 -1.70927,-0.0304 -2.61125,0.48958 -1.21491,1.02027 -3.13687,2.28864 -5.33441,2.13314 -1.49324,-1.19757 -3.18471,3.05174 -4.10339,2.05336 -1.64191,-1.44301 -2.85374,3.14469 -5.03599,3.49877 -2.80485,3.3358 -4.60199,1.04114 -6.47214,-1.43375 -1.16676,-1.01779 -3.31594,-3.18466 -4.94269,-2.65277 -2.69026,-0.65773 -3.20818,5.31643 -5.50222,5.62518 -7.53731,3.595988 -6.12519,-2.079463 -11.247,0.04663 -2.44991,0.41628 -3.84779,1.74304 -6.34161,0.035 -1.12951,-0.88406 -3.23242,-1.21623 -3.09623,-1.44541 -2.62117,-0.0708 -1.35291,0.30463 -4.14073,-1.22394 -1.48565,-2.45482 -6.50315,-0.0557 -9.41915,-0.65277 -1.82881,0.76793 -4.25112,0.0739 -5.44629,0.50123 -2.18517,-0.02918 -14.01577,-4.39361 -15.2384,-4.54785 -1.56887,-0.34184 -3.17867,-1.65943 -5.39034,-1.76687 -1.43741,1.29466 -3.7093,2.80968 -6.24832,2.4129 -3.18981,0.50015 -6.75741,-3.50479 -10.09062,-3.10245 -0.11462,2.03699 -0.92947,1.13196 -4.47672,0.66443 -1.91282,-0.60374 -4.42642,2.43949 -6.09914,2.73928 -1.88643,-1.29518 -3.9598,-4.49701 -6.56543,-3.53193 -1.9169,-0.71042 -2.9373,2.84247 -5.14776,2.71415 -2.640278,0.555477 -2.26416,-7.666016 -5.452322,-7.440112 -1.428105,0.101191 -4.257604,-3.061167 -6.273632,-1.606646 -3.307122,2.386018 -5.929973,9.672153 -7.7276,8.464448 -0.95253,2.31076 -1.503209,-0.75105 -4.551156,-1.74848 -3.847521,0.48152 -8.302393,0.57108 -10.985905,0.97915 -6.128998,2.721026 -14.267927,8.088272 -22.279544,7.535764 C 37.093597,79.58302 29.192487,73.105758 23.570406,72.31938 z M 334.91326,77.5905 c 0.23841,0.0914 10.52009,7.524893 0,0 z m 18.79385,-9.36256 c 0.0206,0.11275 10e-4,-0.0138 0,0 z m 2.79777,0.29141 c 0.158,0.15068 -0.18555,0.0925 0,0 z m 30.45837,-3.0509 c 0.29768,0.0322 -0.25514,0.32706 0,0 z m -130.7677,7.24725 c 0.15776,0.17539 -0.20789,0.16503 0,0 z m 1.36158,0.50123 c 0.29046,0.0785 -0.17033,0.12256 0,0 z m -112.52626,0.72271 c 0.137,0.001 -0.0125,0.0807 0,0 z m 120.93821,0 c 0.0953,0.0196 -0.0695,0.0626 0,0 z m -123.9971,-1.70859 c 0.18555,0.0925 -0.158,0.15068 0,0 z m 126.79487,2 c 0.13746,0.12223 -0.13745,0.12223 0,0 z m -47.91645,5.10737 c 0.29358,0.17762 -0.366,0.17362 0,0 z M 108.36145,71.18016 c 0.51654,0.0153 -0.17932,0.31567 0,0 z"
     id="path9"
     inkscape:connector-curvature="0"
     sodipodi:nodetypes="cccccccccccccccccccsccccccccccccccccccccccccccccccccccsscccsccccccccccccccccccccccccc" />
</svg>
