<?xml version="1.0" encoding="utf-8"?>
<!-- Generator: Adobe Illustrator 18.0.0, SVG Export Plug-In . SVG Version: 6.00 Build 0)  -->
<!DOCTYPE svg PUBLIC "-//W3C//DTD SVG 1.1//EN" "http://www.w3.org/Graphics/SVG/1.1/DTD/svg11.dtd">
<svg version="1.1" id="Calque_1" xmlns="http://www.w3.org/2000/svg" xmlns:xlink="http://www.w3.org/1999/xlink" x="0px" y="0px"
	 viewBox="0 0 612 792" enable-background="new 0 0 612 792" xml:space="preserve">
<g>
	<g>
		<path fill="#83B904" d="M264.6,392.5c0.5-1.1,1.3-2.3,2.1-2.6c2.1-0.7,4.1-0.7,5.7,1.3c1.4,1.7,1.4,3.3,0,5c-1.6,2-3.6,2-5.7,1.3
			c-0.8-0.3-1.3-1.1-1.8-2C264.5,393.9,264.4,394,264.6,392.5z"/>
		<path fill="#E71578" d="M304.5,352.4c3.7,1.8-0.2,7.6-3.2,4.2C299.3,354.5,302.3,351.9,304.5,352.4
			C305.4,352.9,303.4,352.2,304.5,352.4z"/>
		<path fill="#5A2400" d="M295.8,460.8c4-2.5,3.5-6.8,3.7-10.4c0.4-8.5,0.1-16.9,0.1-25.4c0-1.1,0.4-4.3-1.3-4.7
			c-1.7-0.4-4.3,1.7-5.1,3.4c-1.3,3-2.3,1.6-4.5,1.7c-2.3,0.1-1.8-2-1.8-3.3c-0.3-8.4-0.1-8.5,8.4-8.5c7.2,0,14.5,0,21.7,0
			c5.2,0,5.8,0.7,5.9,5.8c0,0.5,0.1,1,0,1.5c-0.3,1.6,1,4.2-1.4,4.4c-2.4,0.2-4,2.1-5.3-2.3c-0.4-1.3-3.6-2.8-4.8-2.7
			c-1.3,0.1-2.1,2.6-2,3.9c0.9,7.6-2,15.1-0.2,22.7c0.4,1.9,0.1,4,0.2,6c0.2,5.6,1.9,7.7,7.6,8.9c2.5,1.9,6.9,0.6,8.3,5.3
			c-6.7-0.9-13.2-1.1-19.6-1c-2.8,0.1-5.7,2.3-7.8,1.2c-4.4-2.3-8.6-1.1-13.4-0.6C287.9,463.2,292.7,463.7,295.8,460.8z"/>
		<path fill="#E2E4E4" d="M295.8,460.8c-3.1,2.8-7.9,2.3-11.4,5.8c4.8-0.5,9-1.7,13.4,0.6c2.1,1.1,5.1-1.2,7.8-1.2
			c6.4-0.1,12.8,0.1,19.6,1c-1.3-4.6-5.8-3.3-8.3-5.3c4.3-0.3,8.1,1.2,11.9,2.9c2.9,1.3,1.6,3.2-0.1,4.1c-2.3,1.2-4.9,2.3-7.5,2.5
			c-6.5,0.6-12.9,2.3-19.5,1.6c-6.1-0.7-12.4-1-18.3-3c-0.9-0.3-1.9-0.6-2.6-1.2c-1.7-1.4-2.5-2.7,0.3-4.1
			C285.8,462,290.8,461.5,295.8,460.8z"/>
		<path fill="#F08D10" d="M273.2,387.2c-3.5,0-5.8-2.3-5.8-5.6c0-3.9,2.3-6.4,5.9-6.4c3.5,0,6,2.4,6.1,5.9
			C279.4,384.9,277,387.3,273.2,387.2z"/>
		<path fill="#83B904" d="M336.2,412.7c-3.5,0-5.8-2.3-5.8-5.6c0-3.3,3.2-6.5,6.2-6.4c3,0.2,5.8,3.2,5.8,6.4
			C342.4,410.6,340,412.8,336.2,412.7z"/>
		<path fill="#16A5D5" d="M296.3,403c-3.4,0-5.7-2.4-5.6-5.8c0.1-3.1,2.4-5.4,5.6-5.4c3.7,0,5.6,1.9,5.6,5.6
			C301.9,401.3,300.2,403,296.3,403z"/>
		<path fill="#16A5D5" d="M304.1,369.4c-0.1,2.7-3.5,6-5.9,5.8c-3.3-0.2-5.4-2.8-5.3-6.5c0.1-2.8,2.7-5.5,5.3-5.4
			C301.1,363.3,304.2,366.5,304.1,369.4z"/>
		<path fill="#83B904" d="M326.8,385.7c-3.8,0-5.4-1.5-5.4-4.9c0-3.6,2.2-6,5.5-6.1c2.5-0.1,5.8,3.3,5.7,5.8
			C332.6,383.7,330.3,385.7,326.8,385.7z"/>
		<path fill="#E71478" d="M327.4,362.3c0,2.8-2.7,5.5-5.4,5.4c-2.8-0.1-5.2-2.9-5.1-5.8c0.1-2.7,2.6-5.3,5.1-5.4
			C324.8,356.4,327.4,359.3,327.4,362.3z"/>
		<path fill="#83B904" d="M281.6,362.8c-0.4-3.3,1.8-4,4.4-4.1c2.8-0.1,4.5,1.4,4.6,4.2c0.1,2.7-2.1,4.8-4.6,4.8
			C283.4,367.6,281.6,365.6,281.6,362.8z"/>
		<path fill="#16A5D5" d="M328.6,422.5c-1.8-0.5-3.5-1.6-3.4-4.4c0.1-2.7,2.3-5,4.7-4.6c2.4,0.4,3.8,2.4,4.1,4.6
			C334.3,420.6,331.9,422.6,328.6,422.5z"/>
		<path fill="#16A5D5" d="M274.8,415.1c-2.5-0.3-4.5-1.5-4.4-4.4c0.1-2.5,1-4.2,4.1-4c2.7,0.2,5.3,2.1,4.8,4.3
			C278.8,413.2,277.7,415.3,274.8,415.1z"/>
		<path fill="#E71478" d="M337.9,394.5c0.2-2,1.6-2.8,4-2.8c2.8,0,4.1,1.9,4,3.9c0,2.2-2,3.7-4.4,3.6
			C339,399.1,337.9,397.5,337.9,394.5z"/>
		<path fill="#E71478" d="M287.6,394.5c-0.8,1.6-1.1,4-3.8,4c-2.5-0.1-4.3-1.6-4.3-4.1c0-2,1.1-3.5,3.7-3.5
			C285.8,390.9,287.1,391.8,287.6,394.5z"/>
		<path fill="#F08D10" d="M313.1,363.5c0.2,2.7-1.9,3.4-3.8,3.3c-2.1,0-3.7-1.5-3.6-3.8c0.1-2.3,1.2-3.8,3.9-3.7
			C312.4,359.6,313.3,361.1,313.1,363.5z"/>
		<path fill="#16A5D5" d="M319.1,397.3c0.1,2.3-1,3.9-3.2,4.1c-2.2,0.2-4-1.5-4.1-3.5c-0.1-2.3,1.8-3.9,4-3.8
			C317.5,394.2,319.3,394.9,319.1,397.3z"/>
		<path fill="#16A5D5" d="M337.8,379.9c-1.4,0.3-2.1-1.3-2.1-3.2c0-1.9,1.2-3,3.1-3c2,0,3.4,1.2,3.5,3.1
			C342.4,379,340.7,379.7,337.8,379.9z"/>
		<path fill="#F08E10" d="M308.6,409.7c-1.9-0.2-3.1-1.2-3-3.3c0.2-2,1.9-3.1,3.5-3.1c1.8,0,3.2,1.8,3,3.5
			C312,408.3,311.3,410.4,308.6,409.7z"/>
		<path fill="#F08D10" d="M336.2,389.6c-1.8,0.2-2.6-1.7-2.6-3.2c0-1.3,0.9-2.9,3-2.9c2.5,0,3.3,1.7,3.4,3.5
			C340.1,388.7,338.5,389.5,336.2,389.6z"/>
		<path fill="#F08E10" d="M297.4,357.5c-0.1,2.1-1.1,3.5-2.7,3.3c-1.8-0.1-3.3-1.5-3.2-3.4c0.1-1.6,1.5-3.2,3.1-3
			C296.1,354.6,297.9,355.6,297.4,357.5z"/>
		<path fill="#E71477" d="M309,383.5c-1.3,0.1-2-1-1.9-2.8c0.1-1.9,1-3.3,2.8-3.1c1.4,0.1,3.3,0.7,3.1,2.9
			C313,382.6,311.7,383.5,309,383.5z"/>
		<path fill="#16A5D5" d="M276,366.9c2.2,0.4,3.4,1.3,3.3,3.2c-0.1,1.7-1.1,2.8-2.8,2.8c-1.9,0.1-3-1-3.1-2.9
			C273.3,368,274.8,367.4,276,366.9z"/>
		<path fill="#E71477" d="M301.9,409.6c0.1,1.7-0.9,2.4-2.7,2.4c-1.9,0-3.2-0.9-3.2-2.8c0-1.9,1.4-3.2,3.3-3.2
			C301.1,406.2,301.9,407.6,301.9,409.6z"/>
		<path fill="#E71478" d="M290.6,375.1c-0.6,1.8-1.6,3.3-3.3,3c-1.7-0.3-3-1.5-2.7-3.7c0.3-2.2,1.7-2.2,3.3-2
			C289.6,372.4,290.5,373.5,290.6,375.1z"/>
		<path fill="#E71478" d="M277.9,420.4c-0.2-1.9,0.3-3.1,2.5-3.2c2.1-0.1,3.1,1.2,3.1,2.8c0,1.6-1,3.4-3.1,3.2
			C278.9,423,277.5,422.4,277.9,420.4z"/>
		<path fill="#F08D10" d="M295.8,379.8c2-0.5,2.9,0.9,3,2.6c0,1.4-0.6,2.8-2.6,2.7c-1.7-0.1-3.2-0.1-3.3-2.4
			C292.8,380.5,293.6,379.5,295.8,379.8z"/>
		<path fill="#83B904" d="M312.3,374.4c-2.7,0.3-3.4-1.5-3.5-2.9c-0.1-1.7,1.4-2.9,3.1-2.9c1.6,0,2.5,1.1,2.7,2.9
			C314.9,373.7,313.5,374.1,312.3,374.4z"/>
		<path fill="#F08E10" d="M325.9,402.5c0.1,1.8-0.4,2.9-2.3,2.8c-1.9-0.1-2.9-1.2-3-3.1c-0.1-2,1.7-2.7,2.9-2.7
			C325.1,399.4,326.1,400.8,325.9,402.5z"/>
		<path fill="#F08E10" d="M319.9,388.2c-0.3,1.5-1.1,2.6-2.6,2.7c-1.4,0.1-1.7-0.9-2-2.2c-0.3-1.8,0.7-2.7,2-2.9
			C318.7,385.7,319.4,387,319.9,388.2z"/>
		<path fill="#83B904" d="M306.3,387.8c0,1.7-0.7,2.3-2.1,2.4c-1.5,0.1-2.4-0.6-2.4-2.1c0-1.5,0.6-2.2,2.2-2.4
			C305.9,385.6,305.6,387.3,306.3,387.8z"/>
		<path fill="#F08E10" d="M332.4,370.3c-0.4,0.9-0.5,2-2.1,2c-1.5,0-2.3-0.3-2.2-2c0.1-1.4,0.3-2.5,2-2.5
			C331.7,367.8,331.8,369.3,332.4,370.3z"/>
		<path fill="#16A5D5" d="M331.5,392.7c1.3,0.4,2,1.1,1.9,2.6c-0.1,1.8-1.1,1.6-2.2,1.6c-1.4,0-2.4-0.5-2.3-2.1
			C329.1,393.3,330.6,393.3,331.5,392.7z"/>
		<path fill="#F08E10" d="M288.8,411.3c-1.7-0.4-2.3-1.6-2.2-3c0.1-1.3,1.1-1.6,2.4-1.6c2-0.1,1.7,1.2,1.7,2.4
			C290.6,410.5,289.9,411.1,288.8,411.3z"/>
		<path fill="#E71477" d="M326.6,410.4c0,1.6-0.7,2.3-2.2,2.4c-1.4,0.1-2-1.1-1.9-1.7c0.1-1.1,0.4-2.7,2-2.6
			C325.4,408.5,326.8,408.8,326.6,410.4z"/>
		<path fill="#16A5D5" d="M313.6,357.2c-1.4-0.1-1.8-0.9-2-2.2c-0.2-1.4,0.9-1.9,1.7-1.9c1-0.1,2.1,0.2,2.1,1.8
			C315.4,356.2,314.9,357,313.6,357.2z"/>
		<path fill="#16A5D5" d="M322.9,372.5c-0.1,1.2-0.6,1.9-1.8,1.9c-1.2,0-1.9-0.6-1.9-1.8c0-1.2,0.6-1.9,1.8-1.9
			C322.1,370.7,322.7,371.4,322.9,372.5z"/>
		<path fill="#F08D10" d="M268.9,402.2c0.8-0.1,1.3,0.2,1.5,1.4c0.1,1.4-0.8,1.8-1.6,2c-1.1,0.2-1.9-0.9-2-1.7
			C266.6,402.7,267.6,402.3,268.9,402.2z"/>
		<path fill="#83B905" d="M319.1,408.1c-0.3,1.1-1,2-2.2,2.2c-0.8,0.1-1.3-0.6-1.4-1.4c-0.2-1.2,0.4-1.9,1.6-2.1
			C318,406.6,318.6,407.2,319.1,408.1z"/>
		<path fill="#E71477" d="M309.3,396.1c-0.3,1.2-1.1,1.6-2.2,1.6c-1.1,0-1.6-0.3-1.6-1.5c0-1,0.3-1.6,1.5-1.6
			C308.2,394.7,308.9,395.2,309.3,396.1z"/>
		<path fill="#83B905" d="M283.1,403.7c0,1-0.2,2-1.2,1.9c-0.8-0.1-1.9-0.5-1.8-1.9c0.1-1.1,0.4-1.5,1.5-1.5
			C282.7,402.3,283.2,402.7,283.1,403.7z"/>
		<path fill="#83B904" d="M286.6,384.3c1.2-0.1,1.7,0.3,1.7,1.4c0,1.1-0.5,1.5-1.6,1.5c-0.9,0-1.4-0.3-1.4-1.3
			C285.4,385,285.5,384.1,286.6,384.3z"/>
	</g>
</g>
</svg>
